<svg id="Capa_1" data-name="Capa 1" xmlns="http://www.w3.org/2000/svg" viewBox="0 0 751.18 786.9"><defs><style>.cls-1{fill:#eb5e29;}</style></defs><title>iconos</title><path class="cls-1" d="M331.63,597.1h-274C41.86,597.1,39,594.34,39,578.67q0-186.55,0-373.12c0-17.17,3-20.1,20.18-20.11,55.17,0,110.34-.16,165.52.15,8.54,0,12.52-2.33,14.91-11.13C261,95.5,350.22,59.7,420.29,101.83c7,4.23,12.34,4.3,19.57.18,44-25.11,88.13-24.68,130.84,2.61,25.86,16.52,43.16,40.42,50.07,70.64,2.39,10.46,6.94,15.37,17.65,18.12,53,13.64,94.28,64.41,100.51,119.25,8.05,70.93-38.61,137.14-107,153.69-7.08,1.71-9.5,5.13-9.44,12.28.28,32.73.1,65.46.12,98.19,0,19.35-.87,20.3-19.82,20.3Zm-1-61.88q119.25,0,238.51,0c11.76,0,12.16-.45,12.22-12.06.06-11.22,0-22.45,0-33.67,0-19.92,0-20.15-20.08-19.1-6.56.34-5.87-1.08-4.42-6.64,5.73-22,18.88-27.57,41.21-26.54C635.85,439,665.7,421,687.93,390.59,724.74,340.18,706,261.86,650.76,233c-15-7.83-31.08-10.87-47.3-13.82-5.73-1-8.74-3.61-9.6-9.52-1.38-9.53-2.43-19.11-5-28.49-16.05-58.7-89.47-84.05-138.1-47.54-20.4,15.31-20.4,15.31-41.07.17-43.71-32-105.2-17.9-130.95,29.83-7.29,13.52-10.26,28-11.69,43-.74,7.74-3.27,12.19-12.27,13.08-27.23,2.69-51.47,13.16-70.54,33-42.07,43.82-41.64,108.79.57,152.52,23.83,24.69,53.64,33.47,87.29,32.79,23.4-.48,19-2.67,26.76,17.28a55.56,55.56,0,0,0,3.89,7.45c3.13,5.38,1.18,7.23-4.53,7.18-14.34-.12-28.69.24-43-.12-54.69-1.38-105.14-37.25-124.2-87.47-20-52.77-12.38-102.24,24.37-146.2,1.37-1.63,3.86-3.11,3.07-5.4-1-3-4.19-2.14-6.55-2.15q-28.53-.12-57.06-.06c-12.8,0-13.07.29-13.07,13.14q0,140.25,0,280.51c0,12.77.26,13,13.19,13Z"/><path class="cls-1" d="M331.67,683q-65.46,0-130.91,0c-17.58,0-26-13.86-18.41-30.14,2.79-6,8.06-7.31,14-7.31,15,0,29.93-.33,44.88,0,7.92.2,11.13-2.4,11.05-10.72-.23-23.7-2.79-21,21.75-21.07,41.77-.09,83.53.19,125.29-.17,9-.08,12,2.89,11.86,11.82-.33,21.4-2.72,20,20.07,20,11.53,0,23.07-.2,34.59.15,12.27.37,16.45,5.69,16.31,19.78-.11,12.11-4.82,17.43-16.77,17.47-44.57.18-89.13.07-133.7.07Z"/><path class="cls-1" d="M430.72,275.08c67.67.07,121,54.23,120.74,122.56-.28,65.43-55.24,119-121.86,118.91-63.52-.13-121-49.82-120.62-122.82C309.36,327.3,365.66,273,430.72,275.08ZM372.6,313.73c-3.58.17-10.49,5.65-17,13.18-9.07,10.44-9.07,10.44-1.07,21.88,6.95,9.93,1.24,24-10.7,26.46-14.76,3-14.77,3-15,18,0,2.49,0,5,0,7.48.21,12.84.8,13.47,13.61,14.82,13.14,1.39,20.47,15.64,12.53,25.92-9.77,12.65-9.3,11.64,3.34,26.35,1.59,1.86,4.08,2.94,5.72,4.77,5.84,6.54,11.48,6.07,17.64.35,3.07-2.85,6.22-7.24,11.14-5.3,8.41,3.32,18.28,5.46,17.7,18.09-.33,7.13,3.89,10.37,11,11.14a99.2,99.2,0,0,0,16.71.07c8.25-.47,11.06-4.79,12.17-12.32,2.31-15.74,16.09-21.58,28.39-11.58,7.62,6.2,13.17,5.11,19.19-1.31,2.56-2.73,5.28-5.3,7.88-8,6.21-6.45,8.55-13,.55-19.91-7.36-6.4-3.6-13.58-1.08-20.55,2.29-6.31,7.5-7.85,13.52-7.79,9.1.1,13.1-4.29,12.15-13.38a51.88,51.88,0,0,1,.18-7.47c.7-15-.28-16.35-14.61-19.55-13.54-3-18.73-18.19-9.12-28.33,5.78-6.09,6-11,.19-16.64-2.43-2.4-4.55-5.12-7-7.52-10.87-10.7-11-10.68-23.93-2.12-10.32,6.82-24.79-.13-26.28-12.58-.54-4.61-.3-10.17-5.53-12a46.41,46.41,0,0,0-28.48-.39c-7,2-5,9.3-6.41,14.4-3.05,11.17-17,16.59-26.53,10C379.9,317.48,376.74,314.29,372.6,313.73Z"/><path class="cls-1" d="M429.9,453a58.11,58.11,0,0,1-58-58.16c0-30.65,28.13-58,59.3-57.52,31.93.45,56.76,26.36,56.7,59.18C487.85,428.56,462.72,453,429.9,453Zm1.42-22.52c17.8-.19,34.43-17.48,33.94-35.3-.54-19.54-16.48-33.62-36.73-34.22-18.17-.53-34.21,18-33.52,35.51C395.66,413.27,408.48,430.44,431.32,430.48Z"/></svg>