<svg id="Capa_1" data-name="Capa 1" xmlns="http://www.w3.org/2000/svg" viewBox="0 0 1667.85 1142.45"><defs><style>.cls-1{font-size:262.33px;fill:#222221;font-family:ArialRoundedMTBold, Arial Rounded MT Bold;letter-spacing:-0.01em;}.cls-2{letter-spacing:0em;}.cls-3{fill:#ccc9c9;}.cls-4{fill:#eb5e29;}.cls-5{fill:none;}.cls-6{fill:#4b6eb4;}.cls-7{writing-mode:tb;text-orientation:upright;glyph-orientation-vertical:0deg;}</style></defs><title>cumplimos logo</title><text class="cls-1" transform="translate(20.67 1092.89) scale(1.01 1)">C<tspan class="cls-2" x="190.77" y="0">UMPLIMOS</tspan></text><ellipse class="cls-3" cx="812.36" cy="707.78" rx="420.69" ry="57.66"/><path class="cls-4" d="M1170.08,335.76c-5.93,13.26-16.42,21.05-29.92,25.51-7.44,2.47-14.73,5.38-22,8.38-43.69,18.09-60.55,52.93-46.91,98.5,3.87,12.91,9.93,25.15,15.1,37.63,13.4,32.39,8.57,67.2-11.94,85.6-21.76,19.55-77.23,26.92-101.25,13.34-10.27-5.8-17.47-14.74-22.71-25a248,248,0,0,1-23.61-68.47c-4.64-25.45,6.64-45.08,31.75-56.69,14.83-6.86,30.78-11.28,45.78-17.83,37.4-16.35,51.53-44.76,43.14-84.76a195.25,195.25,0,0,0-20.37-53.79c-20.25-36.94-56.57-55.11-98.44-49.79-22.57,2.87-44.82,8.66-67.9,6.7-31.82-2.7-56.09-34.58-55.1-72.66.67-25.6,22.74-43,55.49-44.37,34.95-1.48,61.15,9.69,78.88,42.76,31.21,58.2,56.14,69.25,121.89,60.75,65.44-8.43,91.65,10.53,104.64,75.6.69,3.43,2.27,6.69,3.44,10Z"/><path class="cls-5" d="M1170.08,335.76c-5.93,13.26-16.42,21.05-29.92,25.51-7.44,2.47-14.73,5.38-22,8.38-43.69,18.09-60.55,52.93-46.91,98.5,3.87,12.91,9.93,25.15,15.1,37.63,13.4,32.39,8.57,67.2-11.94,85.6-21.76,19.55-77.23,26.92-101.25,13.34-10.27-5.8-17.47-14.74-22.71-25a248,248,0,0,1-23.61-68.47c-4.64-25.45,6.64-45.08,31.75-56.69,14.83-6.86,30.78-11.28,45.78-17.83,37.4-16.35,51.53-44.76,43.14-84.76a195.25,195.25,0,0,0-20.37-53.79c-20.25-36.94-56.57-55.11-98.44-49.79-22.57,2.87-44.82,8.66-67.9,6.7-31.82-2.7-56.09-34.58-55.1-72.66.67-25.6,22.74-43,55.49-44.37,34.95-1.48,61.15,9.69,78.88,42.76,31.21,58.2,56.14,69.25,121.89,60.75,65.44-8.43,91.65,10.53,104.64,75.6.69,3.43,2.27,6.69,3.44,10Z"/><path class="cls-6" d="M756.09,294c-15.74.24-37.53,7.94-60.07,11.06-52,7.2-94.68-42.8-79.11-93.45,4.65-15.14,15.4-25.12,30.29-30.94,23.52-9.18,48.22-13.1,73.06-14.22,23.76-1.07,40.35,11.61,50.1,33.21,6.46,14.25,12.07,29,19.75,42.58,18.48,32.67,49.61,47,86.6,40.63,14.72-2.53,29.24-6.26,43.95-8.91,27.52-5,51.66,2.71,68.83,24.46,20.06,25.42,30.8,54.69,22.64,87.74-2.68,10.86-11.4,18.18-21.5,22.55-12.37,5.36-25.09,10-37.91,14.26-52,17.26-74.41,56.46-61.4,109.64,4.9,20,12.65,39.34,17.66,59.35,8.46,33.76-.75,56.63-30.35,74.51-26.9,16.25-54.61,30.79-87.53,30.66Q754.4,696.95,737,665.3c-14.3-26-21.3-54.71-22.68-83.88-1.35-28.35,12.21-51.12,37.5-64.94,11.74-6.41,24.83-10.62,37.62-14.92,85.84-28.86,105.73-112.23,42.4-178.17-19.49-20.27-40.31-29.19-75.78-29.41"/><path class="cls-5" d="M756.09,294c-15.74.24-37.53,7.94-60.07,11.06-52,7.2-94.68-42.8-79.11-93.45,4.65-15.14,15.4-25.12,30.29-30.94,23.52-9.18,48.22-13.1,73.06-14.22,23.76-1.07,40.35,11.61,50.1,33.21,6.46,14.25,12.07,29,19.75,42.58,18.48,32.67,49.61,47,86.6,40.63,14.72-2.53,29.24-6.26,43.95-8.91,27.52-5,51.66,2.71,68.83,24.46,20.06,25.42,30.8,54.69,22.64,87.74-2.68,10.86-11.4,18.18-21.5,22.55-12.37,5.36-25.09,10-37.91,14.26-52,17.26-74.41,56.46-61.4,109.64,4.9,20,12.65,39.34,17.66,59.35,8.46,33.76-.75,56.63-30.35,74.51-26.9,16.25-54.61,30.79-87.53,30.66Q754.4,696.95,737,665.3c-14.3-26-21.3-54.71-22.68-83.88-1.35-28.35,12.21-51.12,37.5-64.94,11.74-6.41,24.83-10.62,37.62-14.92,85.84-28.86,105.73-112.23,42.4-178.17C812.38,303.12,791.56,294.2,756.09,294Z"/><path class="cls-4" d="M576.71,127.14c-1.82-12.66-4.1-25.3-5.34-38-2.51-25.77,6.77-41,31.44-48.94,23.75-7.62,48.17-13.52,73.42-8.46,22.34,4.48,39,17.11,48.51,38.05,13,28.54,5.94,51.27-20.42,68.15-9.12,5.84-19.09,9.37-29.63,11.74-11.81,2.66-23.83,4.9-35.15,9C597,173.93,583,198,589.88,242.21c9.71,62.51,52.51,92.6,114.55,80.55,16.07-3.13,32.21-5.93,48.21-9.43a56.54,56.54,0,0,1,27.47,1c39.76,10.85,49.27,44.82,56.74,78.38,6.57,29.45-1.18,54.64-30.28,70.72-21,11.58-42.68,19.73-66.38,22.1-32.54,3.23-63.31-17-74.8-49-4.09-11.37-6.32-23.43-10.66-34.7-16.72-43.41-54-64.12-100.08-58.18-27.45,3.53-53.93,13.34-82.31,11.37-26.51-1.82-44.11-14-52.52-39.23a135.19,135.19,0,0,1-3.67-14.48c-11.29-53.68,5.78-81.23,58.43-95.09,20.64-5.45,42-8.45,61.72-17.08,27-11.79,41.59-31.57,40.41-62"/><text class="cls-7"/></svg>