<svg id="Capa_1" data-name="Capa 1" xmlns="http://www.w3.org/2000/svg" viewBox="0 0 2551.18 786.9"><defs><style>.cls-1{font-size:262.17px;fill:#222221;font-family:ArialRoundedMTBold, Arial Rounded MT Bold;}.cls-2{letter-spacing:-0.01em;}.cls-3{fill:#ccc9c9;}.cls-4{fill:#eb5e29;}.cls-5{fill:none;}.cls-6{fill:#4b6eb4;}.cls-7{writing-mode:tb;text-orientation:upright;glyph-orientation-vertical:0deg;}</style></defs><title>cumplimos logo</title><text class="cls-1" transform="translate(850.95 446.3) scale(1.01 1)"><tspan class="cls-2">C</tspan><tspan x="190.66" y="0">UMPLIMOS</tspan></text><ellipse class="cls-3" cx="447.54" cy="704.68" rx="420.43" ry="57.62"/><path class="cls-4" d="M805,332.88c-5.92,13.25-16.4,21-29.9,25.5-7.43,2.46-14.72,5.38-21.94,8.37-43.66,18.08-60.51,52.9-46.88,98.45,3.86,12.89,9.92,25.12,15.09,37.6C734.8,535.17,730,570,709.48,588.35c-21.75,19.53-77.18,26.9-101.19,13.33-10.27-5.8-17.46-14.73-22.7-25A247.82,247.82,0,0,1,562,508.28c-4.63-25.44,6.64-45.06,31.73-56.66,14.83-6.86,30.77-11.27,45.76-17.82,37.38-16.34,51.5-44.73,43.11-84.71a195,195,0,0,0-20.36-53.75c-20.23-36.92-56.53-55.09-98.37-49.77-22.56,2.87-44.8,8.66-67.87,6.7-31.79-2.7-56.05-34.56-55.06-72.62.67-25.58,22.72-42.94,55.46-44.34,34.93-1.48,61.11,9.69,78.83,42.74,31.19,58.16,56.11,69.2,121.82,60.71,65.39-8.43,91.58,10.52,104.57,75.55.69,3.43,2.27,6.69,3.43,10Z"/><path class="cls-5" d="M805,332.88c-5.92,13.25-16.4,21-29.9,25.5-7.43,2.46-14.72,5.38-21.94,8.37-43.66,18.08-60.51,52.9-46.88,98.45,3.86,12.89,9.92,25.12,15.09,37.6C734.8,535.17,730,570,709.48,588.35c-21.75,19.53-77.18,26.9-101.19,13.33-10.27-5.8-17.46-14.73-22.7-25A247.82,247.82,0,0,1,562,508.28c-4.63-25.44,6.64-45.06,31.73-56.66,14.83-6.86,30.77-11.27,45.76-17.82,37.38-16.34,51.5-44.73,43.11-84.71a195,195,0,0,0-20.36-53.75c-20.23-36.92-56.53-55.09-98.37-49.77-22.56,2.87-44.8,8.66-67.87,6.7-31.79-2.7-56.05-34.56-55.06-72.62.67-25.58,22.72-42.94,55.46-44.34,34.93-1.48,61.11,9.69,78.83,42.74,31.19,58.16,56.11,69.2,121.82,60.71,65.39-8.43,91.58,10.52,104.57,75.55.69,3.43,2.27,6.69,3.43,10Z"/><path class="cls-6" d="M391.31,291.13c-15.73.24-37.5,7.93-60,11.05-52,7.19-94.63-42.77-79.06-93.39,4.64-15.14,15.39-25.1,30.27-30.92,23.5-9.18,48.19-13.1,73-14.21,23.73-1.08,40.31,11.6,50.06,33.18,6.45,14.25,12.06,29,19.74,42.56,18.46,32.65,49.58,46.93,86.55,40.6,14.7-2.53,29.22-6.25,43.92-8.9,27.5-5,51.63,2.71,68.79,24.44,20,25.41,30.78,54.66,22.63,87.7-2.68,10.84-11.4,18.16-21.5,22.53-12.36,5.36-25.06,10-37.88,14.25-52,17.25-74.37,56.42-61.36,109.58,4.89,20,12.64,39.31,17.64,59.3,8.46,33.74-.75,56.6-30.32,74.47C486.89,679.61,459.2,694.15,426.3,694q-36.68-.16-54-31.79c-14.29-26-21.29-54.68-22.66-83.83-1.36-28.33,12.2-51.08,37.47-64.9,11.74-6.41,24.81-10.61,37.6-14.9C510.46,469.74,530.33,386.42,467,320.52c-19.47-20.26-40.29-29.17-75.73-29.39"/><path class="cls-5" d="M391.31,291.13c-15.73.24-37.5,7.93-60,11.05-52,7.19-94.63-42.77-79.06-93.39,4.64-15.14,15.39-25.1,30.27-30.92,23.5-9.18,48.19-13.1,73-14.21,23.73-1.08,40.31,11.6,50.06,33.18,6.45,14.25,12.06,29,19.74,42.56,18.46,32.65,49.58,46.93,86.55,40.6,14.7-2.53,29.22-6.25,43.92-8.9,27.5-5,51.63,2.71,68.79,24.44,20,25.41,30.78,54.66,22.63,87.7-2.68,10.84-11.4,18.16-21.5,22.53-12.36,5.36-25.06,10-37.88,14.25-52,17.25-74.37,56.42-61.36,109.58,4.89,20,12.64,39.31,17.64,59.3,8.46,33.74-.75,56.6-30.32,74.47C486.89,679.61,459.2,694.15,426.3,694q-36.68-.16-54-31.79c-14.29-26-21.29-54.68-22.66-83.83-1.36-28.33,12.2-51.08,37.47-64.9,11.74-6.41,24.81-10.61,37.6-14.9C510.46,469.74,530.33,386.42,467,320.52,447.57,300.26,426.75,291.35,391.31,291.13Z"/><path class="cls-4" d="M212,124.39c-1.82-12.66-4.1-25.28-5.33-38-2.51-25.75,6.76-41,31.41-48.91C261.86,29.88,286.27,24,311.5,29c22.33,4.47,39,17.1,48.48,38,12.94,28.52,5.93,51.23-20.41,68.1-9.11,5.84-19.08,9.37-29.61,11.74-11.8,2.66-23.82,4.89-35.13,9-42.48,15.27-56.48,39.34-49.62,83.5,9.7,62.48,52.47,92.55,114.47,80.5,16.06-3.12,32.19-5.92,48.18-9.42a56.62,56.62,0,0,1,27.46,1c39.73,10.85,49.23,44.79,56.7,78.34,6.57,29.42-1.18,54.61-30.26,70.67-20.95,11.57-42.65,19.73-66.34,22.1-32.52,3.22-63.27-17-74.76-49-4.08-11.37-6.31-23.42-10.65-34.68-16.7-43.38-54-64.08-100-58.15-27.44,3.53-53.91,13.34-82.27,11.37-26.49-1.82-44.08-14-52.49-39.21a135.4,135.4,0,0,1-3.66-14.46c-11.29-53.66,5.77-81.19,58.39-95C130.6,198,151.92,195,171.66,186.4c27-11.78,41.56-31.55,40.38-62"/><text class="cls-7"/></svg>