<svg id="Capa_1" data-name="Capa 1" xmlns="http://www.w3.org/2000/svg" viewBox="0 0 751.18 786.9"><defs><style>.cls-1{fill:#4b6eb4;}</style></defs><title>iconos</title><path class="cls-1" d="M552,39.74c6.71,2.93,10.71,8,13,15,3.19,9.63,6.35,19.34,11.57,28.15,2.93,5,5.7,10.25,12.73,10.08,3-.07,2.14,3.51,4.31,4.42,9.23,3.85,18.42,7.74,28.75,4.6,10-3,19.05-8.21,28.5-12.49,5.74-2.6,11.5-3.83,17.22-1.12,5.44,2.57,6.31-3.71,9.91-4.43a2.93,2.93,0,0,1,.27,4.67c-6,5.88.11,8.27,3.21,11.3,4.1,4,6.06-.59,8.66-2.51,2.29-1.69,4.59-6.19,7.35-3.18,2.05,2.23-2.24,4.72-4.21,6.39-4,3.37-4.67,6.2-1.81,11.07,3.14,5.36,2.13,11.51-.68,17.18a230,230,0,0,0-11.41,26.08c-5.68,16.2.21,30.21,9.83,41.84,4.79,5.8,12.74,10.64,21,13.06,6.14,1.79,12.12,4.17,18.11,6.43,8.12,3.07,12.28,9,12.42,17.71.09,6.19.05,12.38.05,18.57,0,8.94-4.19,15.07-12.63,18.24-6.2,2.32-12.38,4.8-18.72,6.66C682,285.53,669.34,318,682.92,342.2a197.92,197.92,0,0,1,8.52,18c3.51,8.07,2.2,14.17-4.05,20.47q-6.55,6.58-13.14,13.13c-7.44,7.41-13.29,8.31-22.69,3.92-10.38-4.84-20.44-10.45-31.87-12.78-16.33-3.34-39.11,8-45.71,23.4-3.48,8.11-6.32,16.49-9.33,24.8-3.84,10.6-8.25,13.65-19.46,14.47a130,130,0,0,1-19.13,0c-8.67-.63-13.7-5.15-16.76-12.78-4-10-6.67-20.53-12.17-30a35.75,35.75,0,0,0-16.91-15.17c-12.76-5.75-25.54-8.2-38.78-1.12-6.41,3.43-13.19,6.19-19.78,9.28-8.57,4-15.64,3.06-22.57-3.26-4.56-4.17-9.13-8.35-13.49-12.72-6-6-7.21-15.09-3.19-23.32,5.24-10.72,10.75-21.3,13.16-33.15,2.68-13.14-7.83-35.82-19.53-42.3-9.35-5.19-19.62-8-29.52-11.75-9.08-3.41-13.9-9-14.1-19.15-.12-6.18,0-12.28.18-18.45.28-9.32,5.12-14.73,13.31-17.72s16-6.31,24.16-9.1c19.8-6.82,33.45-39,20.85-60.46-3.56-6.06-6.11-12.74-9-19.18-3.85-8.56-2.66-14.28,4.09-20.88,4.26-4.18,8.51-8.37,12.7-12.63,7.5-7.63,12.61-8.73,22.55-4.56,10.56,4.42,20.37,10.53,31.82,13,14.56,3.11,37.36-7,44.35-20.09,4.41-8.23,7.52-17,10.36-25.79,2.29-7.11,6.12-12.62,12.41-16.51ZM513.82,332.79c-1.22,1.37-1.9,2.2-2.64,3-1,1.08-3.17,1.63-2.86,3.35.36,2.08,2.7,2.1,4.31,2.45,5,1.09,9.94,2.44,15,2.75,11.63.73,23.72,2.49,31.61-9.65,1.39-2.13,3.87-3.7,7-2.07-.48,3.91-5.06,4.78-6.12,8.28,33.38-3.84,71.82-43.57,74.07-75.14-2.73,1.43-3.17,5.5-7.08,5.76-1.25-3.66.7-6.08,3.3-7.77,5.94-3.85,7.28-9.7,7.54-16.06.35-8.44-.94-16.72-2.46-25-.95-5.23-2.15-9.28-8.09-4-1.37-2.68-.62-4.64.83-6,5.4-5.07.67-9.34-1-13.75-2-5.45-5.14.7-7.63-.51a7.44,7.44,0,0,1-1.08-.71c3.91-7,3.67-11.07-1.6-15.09-6.09-4.64-6.59,3.6-10.21,4.88-2.06.73-3.43,5.08-5.65,3-2.53-2.36.82-4.65,2.52-6.48,8.36-9,8.33-8.92.81-15.6-2.35-2.09-3.93-3.24-6,.37-1.44,2.48-3.88,4.28-7.61,2.63A8.78,8.78,0,0,1,592,169.2c6.5-5.8,6.65-6-.73-10.53-32.27-19.76-65.8-22.08-99.77-5.32-31,15.31-48.48,41.21-54.71,75-3.57,19.34.66,37.65,7.22,55.69,1.57,4.3,3.05,3.68,5.74.85s5-6.9,11-4.6a52.05,52.05,0,0,1-9.26,9.09c-2.59,2.08-2.89,4.41-1,6.89,4.72,6,8.51,12.79,13.94,18.33,3.24,3.31,5.79,3.18,8.81-.21a92.07,92.07,0,0,1,8.12-7.8c1.16-1,2.92-1.79,4.12-.22,1,1.29-.33,2.46-1.22,3.4-3,3.21-6.12,6.37-9.17,9.58-.85.89-2.13,1.47-1.21,3.27,2.42,4.7,10.47,6.39,14.69,2.94,1.14-.94,2.32-2.82,3.86-1.59,1.8,1.44.34,3.17-.58,4.68s-3.05,2.28-1.78,4.48c1.67,2.91,12.18,4.68,14.89,2.48C507.3,333.68,509.23,330.88,513.82,332.79Z"/><path class="cls-1" d="M349.22,584.07q-109.47,0-218.93,0c-34.35,0-62.06-22.85-68.86-56.53a50.18,50.18,0,0,1-.8-9.88c-.05-101.06.65-202.13-.44-303.17C59.8,178.23,85,140.21,134.43,140.4c61,.23,122.06.14,183.09.17,9.51,0,19,0,28.52-.15,4.27-.07,7.06,1.43,8.74,5.54,2.17,5.31,5,10.36,7.18,15.67,2.61,6.29.39,12.63-5.83,15.57a137.65,137.65,0,0,1-17.91,6.9c-12,3.73-22.23,9.9-29,20.69-2.75,4.36-6.23,5.36-11.06,5.34q-79.62-.19-159.22-.08c-8.79,0-8.83,0-8.83,8.86q0,125.72,0,251.42c0,9.91,0,9.92,10,9.92l397.37-.13c8.84,0,17.69.09,26.53.12,2.95,0,5.91.06,6.37-4,.22-2,1.92-2.9,3.4-3.85,11.71-7.53,18.87-18.31,22.82-31.5,1.52-5.07,3.28-10.1,5.26-15,3-7.46,9-10.09,16.55-7.58,21.21,7.07,21.38,7.26,21.25,29.62-.14,24.31.73,48.63-.74,72.94-2.08,34.3-32.66,63.19-67.4,63.22Q460.34,584.15,349.22,584.07Zm65.4-46.61c-1-6.15,3.26-8.4,6.31-11.26,2.21-2.06,5.88-3.84,4.51-7.2-1.29-3.16-5.29-2.87-8.31-2.63-8.16.68-16.3,0-24.45,0-13.46,0-27,.81-40.36.35-23.61-.82-47.2.61-70.78-.39-7.92-.33-11,6.06-14.44,11.1-3,4.37-1.14,9.43,1.59,13.7,5,7.76,17.83,10.15,25.88,5,1.93-1.24,6-3.28,5.88-.88-.27,6.12,3.8,3.28,5.62,3.34,9.05.34,18.11.23,27.16.17,5.65,0,11.52,1,16.22-3.76,1-1,4.55-1.56,4.26.34-.86,5.55,3.08,3.26,4.89,3.29,10.6.21,21.2.06,31.8.13,4,0,7.92.08,11.06-3.15,1.24-1.28,4.29-2.24,4.7-1.08,3.28,9.1,10.11,3.79,14.77,3.17,8.94-1.18,14-9.88,12.47-18.73-.31-1.76-.63-3.69-2.33-4.52-2.1-1-3.1,1.08-4.35,2.17C422.82,530,419.83,534.46,414.62,537.46Z"/><path class="cls-1" d="M349.7,719.62H199.16c-11.73,0-19.73-6.69-20-16.69-.29-10.28,8.28-18.53,19.88-18.61,24.09-.16,48.19-.1,72.29-.13,9.63,0,9.46,0,9.75-9.93.29-10.13-1.26-20.35,1-30.39,3.75-16.46,17-27.24,33.74-27.31q34.16-.16,68.31,0a34.52,34.52,0,0,1,34.28,34.19c.07,8,0,15.92,0,23.88.06,9.55.08,9.55,9.38,9.56,24.31,0,48.63-.05,72.95.14,14.46.12,23.13,12,18.2,24.48-2.75,7-9,10.8-18.06,10.8q-56.7,0-113.4,0H349.7Z"/><path class="cls-1" d="M566.35,173.13c-1,3.5-3.57,5-5.64,6.81-3.1,2.77-3.6,5.31.83,6.75,7.71,2.51,13.61,7.46,19,13.18,2.44,2.59,4.76,2.77,7.47.52,1-.84,2.49-1.57,3.55-.3s-.27,2.35-1,3.4c-2.3,3.29-.2,13,3.07,14.79,2.33,1.27,3.15-2.38,5.29-1.46-4.91,12.45,1.45,25.11-1.09,37.85-4.73,23.65-24.38,45.14-48,49.28-6.9,1.21-11.56,4.52-16.06,9.26-3.86,4.08-7.51,8.51-13.54,12.46.62-9.89,9.52-12.39,13.14-19.71-6.15-.61-11.53-3.69-17.85-1.73-1.19.36-6.28,4-3.83-2.7.73-2-10.74-6.93-13.37-5.47-3.81,2.1-5.32,1.5-3.66-2.73,1.17-3-.16-4.58-1.94-6.33-5.74-5.64-10.49-12-13.35-19.56-1.68-4.45-3.27-3.69-5.63-.51-1.39,1.87-2.81,4-5.88,4.69-1.45-3.94,1-6.31,3.38-8.34,3.79-3.18,4.5-6.71,3.89-11.67-5.12-41.21,29.25-74.92,70.41-69.18,5.13.72,8.35-1.31,11.45-4.75C559.32,175.14,561.39,171.92,566.35,173.13Z"/></svg>