<svg id="Capa_1" data-name="Capa 1" xmlns="http://www.w3.org/2000/svg" viewBox="0 0 751.18 786.9"><defs><style>.cls-1{fill:#4b6eb4;}</style></defs><title>iconos</title><path class="cls-1" d="M559.27,757.11c-11.78-2.26-23.59-4.35-35.2-7.45-41.77-11.13-81.41-27.3-118-50.37-22.91-14.45-43.75-31.43-59.74-53.64-14.79-20.54-23.33-43.22-23-68.85.09-6.91,0-13.83,0-20.74,0-10.85,10.87-14.84,17.91-10.37,3.86,2.45,5.51,6,5.54,10.41,0,5.58.23,11.17,0,16.74-1.08,23.86,7.13,44.48,21.68,62.91,12.52,15.87,27.74,28.8,44.5,39.93,38.63,25.64,80.93,42.79,125.83,53.82a185.36,185.36,0,0,0,29.79,4.75c19.31,1.5,36.65-14.25,37.14-33.84.23-9.46.13-18.93,0-28.39,0-5.09,1.57-9.17,5.82-12.25,3.43-2.48,6.53-5.42,10-7.92,2-1.5,2.23-2.68.71-4.73-4.48-6-8.75-12.21-13.14-18.31-6.07-8.46-3.77-16.32,6-19.9,6.49-2.38,13-4.74,19.59-6.78,3.36-1,4.34-2.33,3.07-5.9-4.06-11.3-7.83-22.7-11.55-34.12-2-6.23.28-11.71,5.64-14.55,2.16-1.14,4.44-1.09,6.75-1.11,14.43-.07,28.87-.22,43.3-.13,3.45,0,3.91-.87,2.74-4q-22.3-59.06-44.41-118.2c-5.87-15.69-6.48-12.74.36-27.36,3.08-6.59,6-13.26,9.06-19.86a13.65,13.65,0,0,0,1.36-6c0-12.74-.1-25.48,0-38.22,0-3.36-1.1-4.4-4.41-4.36q-19.49.22-39,0c-3.41,0-4.7.89-4.63,4.49.21,10.67,0,21.35.09,32a18.75,18.75,0,0,1-2,8.76q-16.07,32.06-32,64.15c-2.84,5.71-7.33,7.83-13.54,7.82q-96.82-.11-193.65-.12a11.8,11.8,0,0,0-9.22,3.86q-37.44,37.71-75.14,75.17a10.32,10.32,0,0,0-3.4,8q.15,38.78,0,77.53c0,2.53,1.06,3.59,3.25,4.5,15.15,6.28,25.22,21.35,24.88,37a40,40,0,0,1-26.49,37c-22.72,8.39-48.44-6.85-52.19-30.93a39.38,39.38,0,0,1,23.65-42.8c3-1.25,3.91-2.86,3.9-6-.1-27.9,0-55.81-.12-83.71a16.4,16.4,0,0,1,5.35-12.53q34-33.71,67.66-67.66c6.17-6.17,12.37-12.32,18.51-18.53a14.19,14.19,0,0,1,10.79-4.33c12.62.09,25.24-.08,37.86.1,3.52.05,4.9-.77,4.86-4.62-.2-17.47-.12-34.94-.05-52.42a6.93,6.93,0,0,0-2.6-6c-10.21-8.58-20.18-17.44-30.41-26A16,16,0,0,1,356.73,320c.1-28.27,0-56.54,0-84.81,0-9.1,4.49-13.77,13.58-13.82,19.17-.09,38.35,0,57.52,0a15.43,15.43,0,0,1,11.68,5c4.45,4.63,9.12,9.06,13.57,13.7,1.84,1.92,3.53,2.38,6.08,1.31a39.5,39.5,0,1,1-21.52,22c1.29-3.34.34-5-1.61-7.57-6.83-9-15.37-12.44-26.69-11.14-8.26.95-16.73.28-25.1.14-2.92-.05-4.1.79-4.08,3.89.1,21.84.06,43.68,0,65.52a5.31,5.31,0,0,0,1.86,4.48c10.46,8.86,20.81,17.83,31.28,26.67,3.76,3.18,5.74,6.86,5.7,12-.15,20.14,0,40.28-.13,60.42,0,3.53,1.08,4.74,4.57,4.52,4-.25,8,0,12-.05,4.88,0,4.89,0,4.9-4.79q0-26.94,0-53.87c0-9.07,3.42-13,12.34-13.65,6-.41,12.12-.31,18.19-.32,19.65,0,39.31,0,59,0,5.15,0,5.19,0,5.2-5,0-30.58,0-61.16.06-91.73,0-3-1-4.43-3.8-5.58-16-6.55-25.74-23.31-23.88-40.7A39.7,39.7,0,0,1,540,171.87a39.22,39.22,0,0,1,43,23.33c1.44,3.28,3.2,4.2,6.53,4.12,8.86-.19,17.72,0,26.57-.07,4.28,0,4.43-.2,2.37-3.86a230.08,230.08,0,0,0-24.82-35.85,246.87,246.87,0,0,0-65-54.4A282.93,282.93,0,0,0,422.51,69.27a346.32,346.32,0,0,0-52.61-2.66c-10,.21-20.13.06-30.19-.26-3-.09-4,1.06-4,4q.12,32.94,0,65.89a6.75,6.75,0,0,0,2.13,5.17q16.65,16.56,33.19,33.21a7.11,7.11,0,0,0,5.51,2.2q25.31-.08,50.6,0a7.68,7.68,0,0,0,6.06-2.63c2.82-3,5.71-6,8.76-8.73,2.17-2,2.65-3.69,1.45-6.57-9.62-23,4.39-49,29.29-53.84,17.19-3.32,35.49,5.94,42.86,21.8,7.81,16.83,3.39,36.64-10.73,47.74-12.09,9.5-25.46,11.41-39.72,5.92-3.06-1.17-4.8-.66-6.89,1.58-4.39,4.69-9.09,9.1-13.58,13.7A14.08,14.08,0,0,1,434,200.31q-32-.12-64.06,0a13.64,13.64,0,0,1-10.23-3.92q-21.58-21.62-43.17-43.25a14.18,14.18,0,0,1-4.27-10.78c.09-28.75,0-57.51.06-86.26,0-8.46,4.29-12.69,12.8-12.69,22,0,43.92-.14,65.88.05,29.19.25,57.67,5.19,85.58,13.65A289,289,0,0,1,553,93c35.53,23.6,64.42,53.56,85.5,90.81,19.59,34.63,30.55,71.93,34.55,111.43,2.24,22,.54,44.14,1.51,66.17.54,12.16-1.65,23.27-7.51,33.84-2,3.6-3.39,7.52-5.29,11.18a9.19,9.19,0,0,0-.35,8q23.58,62.48,47.07,125v12.38a14.71,14.71,0,0,0-1.08,1.88c-4.36,10.82-12.43,16-24,15.85-7.75-.07-15.51-.09-23.27,0-7.56.1-7-.61-4.61,6.62,2.8,8.64,5.88,17.2,8.73,25.83,3,9.1.06,14.7-9,17.65-5.3,1.73-10.49,3.78-15.79,5.51-2.62.85-2.92,1.93-1.29,4.11,3.77,5,7.54,10.1,11.06,15.32,4.38,6.51,3.28,12.71-2.87,17.61-4.64,3.69-9.24,7.46-14,11a7.27,7.27,0,0,0-3.15,6.45c-.1,9.08.76,18.2-.62,27.24C626,723.74,618,737.32,604,747.34c-6.93,5-14.8,7.63-22.92,9.77Zm-.66-450.93q0,26.38,0,52.77c0,9.73-4.28,14-14,14-25.48,0-51,0-76.43-.05-3.05,0-4.35.75-4.31,4.06.15,13.71.12,27.42,0,41.12,0,2.9.82,4.12,3.92,4.11q39.85-.14,79.71,0a4.67,4.67,0,0,0,4.8-3q12.84-25.92,25.83-51.76a15.09,15.09,0,0,0,1.49-7q-.06-20.56,0-41.12c0-9.8,4.53-14.27,14.26-14.28q23.11,0,46.23,0c10,0,10.23,0,9.3-9.82a266.54,266.54,0,0,0-16.26-68.84c-1-2.68-2.48-3.69-5.38-3.67-13.34.09-26.68,0-40-.1-2.28,0-3.42.92-4.29,3-4.19,10.06-11.07,17.61-21.35,21.65-2.71,1.06-3.57,2.6-3.55,5.45C558.67,270.51,558.62,288.35,558.61,306.18ZM262.75,667.37a16.18,16.18,0,1,0-16.32-16.14C246.45,659.86,254.15,667.47,262.75,667.37ZM495.93,143.92a16,16,0,1,0-32,.3,16,16,0,0,0,32-.3Zm-5.34,133.7a16.17,16.17,0,1,0-16.16,16.3C483.21,293.81,490.68,286.28,490.59,277.62Zm72.26-66.79a16,16,0,1,0-32-.3c-.09,9.21,6.81,16.39,15.81,16.46A16.05,16.05,0,0,0,562.85,210.83Z"/><path class="cls-1" d="M151.72,269.84q0,57.89-.05,115.75a11.35,11.35,0,0,0,2.91,8.21c9,10.2,17.61,20.67,26.53,30.91a16.66,16.66,0,0,1,4.11,11.66c-.08,29.72,0,59.45-.09,89.18,0,2.93.8,4.57,3.67,5.75a39.45,39.45,0,0,1-8.11,75.17c-20.08,3.85-39.37-8.14-45.28-28.16a39.21,39.21,0,0,1,22.63-47c2.63-1.08,3.72-2.46,3.71-5.36q-.13-42.4,0-84.81a7.55,7.55,0,0,0-1.92-5.28c-8.74-10.07-17.29-20.31-26.14-30.28a20.36,20.36,0,0,1-5.51-14.46c.16-36.88,0-73.76.16-110.65a9,9,0,0,0-3.9-7.89c-19.11-15.12-38.06-30.46-57.13-45.65-4.37-3.48-6-7.83-6-13.33.11-29.24,0-58.48.13-87.72,0-3.77-1.08-5.72-4.66-7.37-15.68-7.24-25-23.69-23-39.81C35.85,61.12,48.23,47.08,65.27,44c21.71-4,39.8,8.27,45.64,27.08,6,19.29-3.73,40.26-22.21,47.85-2.9,1.2-4,2.66-4,5.87q.18,40.94,0,81.89a7.54,7.54,0,0,0,3,6.53q16.67,13.25,33.25,26.58c.57.45,1.17.87,1.78,1.26,1.66,1.06,2.9,4.07,4.81,3,1.58-.86.59-3.81.59-5.82q.06-54.42.05-108.83c0-7.65,3.3-12.24,9.52-13.56a12.55,12.55,0,0,1,9.06,1.82q38.08,21.73,76.14,43.5a12.39,12.39,0,0,1,6.7,11.64c0,8,.09,16-.06,24-.06,2.8.74,4.32,3.47,5.47,17,7.15,26.38,23.5,24.13,41.81-2.12,17.15-15.7,30.88-33.41,33.77-17.07,2.77-34.93-7-41.92-23-7.18-16.4-2.49-36,11.12-46.8a38.8,38.8,0,0,1,10.31-6,4,4,0,0,0,2.9-4.41c-.09-5.09-.13-10.19,0-15.28a5.56,5.56,0,0,0-3.16-5.58c-11.83-6.67-23.6-13.45-35.4-20.18q-6.15-3.53-12.33-7c-3.36-1.9-3.6-1.79-3.61,2,0,7.52,0,15,0,22.56ZM89,82.83a16,16,0,1,0-15.5,16C82.15,98.79,89,91.75,89,82.83ZM217.88,222.75a15.87,15.87,0,0,0-15.95,15.94,16.07,16.07,0,0,0,16.26,16.07,16,16,0,1,0-.31-32Zm-28.46,345a16,16,0,1,0-32-.26,16,16,0,1,0,32,.26Z"/><path class="cls-1" d="M230.19,465.59c1.31-.14,1.94-1.28,2.76-2.1q38.12-38.07,76.23-76.14a9.91,9.91,0,0,0,3.17-7.67q-.14-77,0-154a9.49,9.49,0,0,0-3.1-7.34c-12.16-12-24.16-24.22-36.35-36.23a16,16,0,0,1-5.17-12.25c.15-28.87,0-57.75.1-86.63,0-7.26,4.5-12,11.2-12.14s11.67,4.41,11.78,11.17c.16,9.7.07,19.41.07,29.12,0,16.14.26,32.28-.14,48.41-.14,5.32,1.82,8.84,5.36,12.32,11.84,11.64,23.48,23.47,35.26,35.17a14.53,14.53,0,0,1,4.42,10.78q0,85,0,170a14.07,14.07,0,0,1-4.53,10.35Q301,428.66,270.88,459q-21.33,21.38-42.66,42.75a18,18,0,0,1-5.84,4.25,11.42,11.42,0,0,1-15.66-8.41,34.59,34.59,0,0,1-.51-6.51c0-32.64-.07-65.28,0-97.92,0-3.46-.89-5.36-4.26-6.89-17.89-8.15-27.06-26.94-22.44-45.29,4.85-19.25,21.67-31.67,41.68-30.09,14.67,1.16,25.73,8.75,32.17,21.9,6.63,13.53,5.61,27-2.76,39.76a37.78,37.78,0,0,1-17.88,14.36c-2,.82-3.15,1.86-3.14,4.24q.09,36.4.06,72.8C229.69,464.47,229.53,465.13,230.19,465.59ZM218,366.18a16,16,0,1,0-16-16.07A15.74,15.74,0,0,0,218,366.18Z"/><path class="cls-1" d="M28.17,489.51c.68-17,8.5-29.39,24.26-36.38,2.6-1.16,3.63-2.58,3.62-5.45q-.16-33.29,0-66.58c0-3-.86-4.53-3.73-5.67-13.54-5.38-26.22-19.87-23.94-42,1.54-14.9,14.59-29.3,30.41-33s33.36,3.37,41.87,16.9c9.45,15,8.49,33.1-2.34,46.54a37.74,37.74,0,0,1-15.6,11.55c-2.44,1-3.28,2.34-3.28,4.88q.1,33.84,0,67.67c0,2.7,1,4.13,3.44,5.2,17.29,7.47,26.91,25.09,23.67,43-3.34,18.48-18.57,32.2-37.43,32.86C45.23,530,27.25,510.23,28.17,489.51Zm55.53,0c0-8.72-7.45-16.26-15.87-16.15a16.49,16.49,0,0,0-16.48,16.36c0,8.42,7.57,15.94,16.13,16A16.25,16.25,0,0,0,83.7,489.54ZM67.43,355.14c8.88,0,16.36-7.4,16.28-16.07a16.5,16.5,0,0,0-16.24-16.24,16.53,16.53,0,0,0-16.1,16A16.24,16.24,0,0,0,67.43,355.14Z"/></svg>