<svg id="Capa_1" data-name="Capa 1" xmlns="http://www.w3.org/2000/svg" xmlns:xlink="http://www.w3.org/1999/xlink" viewBox="0 0 2613.18 2111.45"><defs><style>.cls-1,.cls-10,.cls-103,.cls-107,.cls-111,.cls-115,.cls-118,.cls-122,.cls-126,.cls-13,.cls-130,.cls-17,.cls-20,.cls-24,.cls-28,.cls-31,.cls-35,.cls-38,.cls-41,.cls-45,.cls-49,.cls-52,.cls-56,.cls-59,.cls-63,.cls-67,.cls-7,.cls-71,.cls-75,.cls-79,.cls-83,.cls-87,.cls-91,.cls-95,.cls-99{fill:none;}.cls-2{clip-path:url(#clip-path);}.cls-3{clip-path:url(#clip-path-2);}.cls-4{opacity:0.3;}.cls-5{clip-path:url(#clip-path-3);}.cls-6{clip-path:url(#clip-path-4);}.cls-10,.cls-103,.cls-107,.cls-111,.cls-115,.cls-118,.cls-122,.cls-126,.cls-13,.cls-130,.cls-17,.cls-20,.cls-24,.cls-28,.cls-31,.cls-35,.cls-38,.cls-41,.cls-45,.cls-49,.cls-52,.cls-56,.cls-59,.cls-63,.cls-67,.cls-7,.cls-71,.cls-75,.cls-79,.cls-83,.cls-87,.cls-91,.cls-95,.cls-99{stroke:#f8b77c;stroke-miterlimit:10;}.cls-7{stroke-width:1.2px;}.cls-8{opacity:0.32;}.cls-9{clip-path:url(#clip-path-5);}.cls-10{stroke-width:1.24px;}.cls-11{opacity:0.33;}.cls-12{clip-path:url(#clip-path-7);}.cls-13{stroke-width:1.28px;}.cls-14{opacity:0.35;}.cls-15{clip-path:url(#clip-path-9);}.cls-16{clip-path:url(#clip-path-10);}.cls-17{stroke-width:1.33px;}.cls-18{opacity:0.37;}.cls-19{clip-path:url(#clip-path-11);}.cls-20{stroke-width:1.37px;}.cls-21{opacity:0.38;}.cls-22{clip-path:url(#clip-path-13);}.cls-23{clip-path:url(#clip-path-14);}.cls-24{stroke-width:1.41px;}.cls-25{opacity:0.4;}.cls-26{clip-path:url(#clip-path-15);}.cls-27{clip-path:url(#clip-path-16);}.cls-28{stroke-width:1.45px;}.cls-29{opacity:0.42;}.cls-30{clip-path:url(#clip-path-17);}.cls-31{stroke-width:1.5px;}.cls-32{opacity:0.43;}.cls-33{clip-path:url(#clip-path-19);}.cls-34{clip-path:url(#clip-path-20);}.cls-35{stroke-width:1.54px;}.cls-36{opacity:0.45;}.cls-37{clip-path:url(#clip-path-21);}.cls-38{stroke-width:1.58px;}.cls-39{opacity:0.47;}.cls-40{clip-path:url(#clip-path-23);}.cls-41{stroke-width:1.63px;}.cls-42{opacity:0.48;}.cls-43{clip-path:url(#clip-path-25);}.cls-44{clip-path:url(#clip-path-26);}.cls-45{stroke-width:1.67px;}.cls-46{opacity:0.5;}.cls-47{clip-path:url(#clip-path-27);}.cls-48{clip-path:url(#clip-path-28);}.cls-49{stroke-width:1.71px;}.cls-50{opacity:0.52;}.cls-51{clip-path:url(#clip-path-29);}.cls-52{stroke-width:1.75px;}.cls-53{opacity:0.53;}.cls-54{clip-path:url(#clip-path-31);}.cls-55{clip-path:url(#clip-path-32);}.cls-56{stroke-width:1.8px;}.cls-57{opacity:0.55;}.cls-58{clip-path:url(#clip-path-33);}.cls-59{stroke-width:1.84px;}.cls-60{opacity:0.57;}.cls-61{clip-path:url(#clip-path-35);}.cls-62{clip-path:url(#clip-path-36);}.cls-63{stroke-width:1.88px;}.cls-64{opacity:0.58;}.cls-65{clip-path:url(#clip-path-37);}.cls-66{clip-path:url(#clip-path-38);}.cls-67{stroke-width:1.93px;}.cls-68{opacity:0.6;}.cls-69{clip-path:url(#clip-path-39);}.cls-70{clip-path:url(#clip-path-40);}.cls-71{stroke-width:1.97px;}.cls-72{opacity:0.62;}.cls-73{clip-path:url(#clip-path-41);}.cls-74{clip-path:url(#clip-path-42);}.cls-75{stroke-width:2.01px;}.cls-76{opacity:0.63;}.cls-77{clip-path:url(#clip-path-43);}.cls-78{clip-path:url(#clip-path-44);}.cls-79{stroke-width:2.06px;}.cls-80{opacity:0.65;}.cls-81{clip-path:url(#clip-path-45);}.cls-82{clip-path:url(#clip-path-46);}.cls-83{stroke-width:2.1px;}.cls-84{opacity:0.67;}.cls-85{clip-path:url(#clip-path-47);}.cls-86{clip-path:url(#clip-path-48);}.cls-87{stroke-width:2.14px;}.cls-88{opacity:0.68;}.cls-89{clip-path:url(#clip-path-49);}.cls-90{clip-path:url(#clip-path-50);}.cls-91{stroke-width:2.18px;}.cls-92{opacity:0.7;}.cls-93{clip-path:url(#clip-path-51);}.cls-94{clip-path:url(#clip-path-52);}.cls-95{stroke-width:2.23px;}.cls-96{opacity:0.72;}.cls-97{clip-path:url(#clip-path-53);}.cls-98{clip-path:url(#clip-path-54);}.cls-99{stroke-width:2.27px;}.cls-100{opacity:0.73;}.cls-101{clip-path:url(#clip-path-55);}.cls-102{clip-path:url(#clip-path-56);}.cls-103{stroke-width:2.31px;}.cls-104{opacity:0.75;}.cls-105{clip-path:url(#clip-path-57);}.cls-106{clip-path:url(#clip-path-58);}.cls-107{stroke-width:2.36px;}.cls-108{opacity:0.77;}.cls-109{clip-path:url(#clip-path-59);}.cls-110{clip-path:url(#clip-path-60);}.cls-111{stroke-width:2.4px;}.cls-112{opacity:0.78;}.cls-113{clip-path:url(#clip-path-61);}.cls-114{clip-path:url(#clip-path-62);}.cls-115{stroke-width:2.44px;}.cls-116{opacity:0.8;}.cls-117{clip-path:url(#clip-path-63);}.cls-118{stroke-width:2.48px;}.cls-119{opacity:0.82;}.cls-120{clip-path:url(#clip-path-65);}.cls-121{clip-path:url(#clip-path-66);}.cls-122{stroke-width:2.53px;}.cls-123{opacity:0.83;}.cls-124{clip-path:url(#clip-path-67);}.cls-125{clip-path:url(#clip-path-68);}.cls-126{stroke-width:2.57px;}.cls-127{opacity:0.85;}.cls-128{clip-path:url(#clip-path-69);}.cls-129{clip-path:url(#clip-path-70);}.cls-130{stroke-width:2.61px;}</style><clipPath id="clip-path"><rect id="SVGID" class="cls-1" x="209.83" y="-1.36" width="2414.45" height="2136.22"/></clipPath><clipPath id="clip-path-2"><rect id="SVGID-2" data-name="SVGID" class="cls-1" x="209.83" y="-1.36" width="2414.45" height="2136.22"/></clipPath><clipPath id="clip-path-3"><rect id="SVGID-3" data-name="SVGID" class="cls-1" x="209.83" y="-1.36" width="2333.31" height="2035.62"/></clipPath><clipPath id="clip-path-4"><rect id="SVGID-4" data-name="SVGID" class="cls-1" x="209.83" y="-1.36" width="2333.31" height="2035.62"/></clipPath><clipPath id="clip-path-5"><rect id="SVGID-5" data-name="SVGID" class="cls-1" x="259.03" y="35.13" width="2283.62" height="1990.3"/></clipPath><clipPath id="clip-path-7"><rect id="SVGID-7" data-name="SVGID" class="cls-1" x="308.23" y="71.59" width="2233.94" height="1952.45"/></clipPath><clipPath id="clip-path-9"><rect id="SVGID-9" data-name="SVGID" class="cls-1" x="357.42" y="108.03" width="2184.27" height="1914.65"/></clipPath><clipPath id="clip-path-10"><rect id="SVGID-10" data-name="SVGID" class="cls-1" x="357.42" y="108.03" width="2184.26" height="1914.65"/></clipPath><clipPath id="clip-path-11"><rect id="SVGID-11" data-name="SVGID" class="cls-1" x="406.61" y="144.45" width="2134.59" height="1876.9"/></clipPath><clipPath id="clip-path-13"><rect id="SVGID-13" data-name="SVGID" class="cls-1" x="455.79" y="180.84" width="2084.93" height="1839.2"/></clipPath><clipPath id="clip-path-14"><rect id="SVGID-14" data-name="SVGID" class="cls-1" x="455.8" y="180.84" width="2084.93" height="1839.2"/></clipPath><clipPath id="clip-path-15"><rect id="SVGID-15" data-name="SVGID" class="cls-1" x="504.97" y="217.2" width="2035.27" height="1801.57"/></clipPath><clipPath id="clip-path-16"><rect id="SVGID-16" data-name="SVGID" class="cls-1" x="504.97" y="217.2" width="2035.27" height="1801.58"/></clipPath><clipPath id="clip-path-17"><rect id="SVGID-17" data-name="SVGID" class="cls-1" x="554.17" y="253.52" width="1985.59" height="1764"/></clipPath><clipPath id="clip-path-19"><rect id="SVGID-19" data-name="SVGID" class="cls-1" x="603.34" y="289.81" width="1935.94" height="1726.51"/></clipPath><clipPath id="clip-path-20"><rect id="SVGID-20" data-name="SVGID" class="cls-1" x="603.34" y="289.81" width="1935.94" height="1726.51"/></clipPath><clipPath id="clip-path-21"><rect id="SVGID-21" data-name="SVGID" class="cls-1" x="652.5" y="326.06" width="1886.32" height="1689.09"/></clipPath><clipPath id="clip-path-23"><rect id="SVGID-23" data-name="SVGID" class="cls-1" x="701.66" y="362.27" width="1836.69" height="1651.76"/></clipPath><clipPath id="clip-path-25"><rect id="SVGID-25" data-name="SVGID" class="cls-1" x="750.81" y="398.43" width="1787.08" height="1614.52"/></clipPath><clipPath id="clip-path-26"><rect id="SVGID-26" data-name="SVGID" class="cls-1" x="750.81" y="398.43" width="1787.08" height="1614.52"/></clipPath><clipPath id="clip-path-27"><rect id="SVGID-27" data-name="SVGID" class="cls-1" x="799.96" y="434.54" width="1737.48" height="1577.39"/></clipPath><clipPath id="clip-path-28"><rect id="SVGID-28" data-name="SVGID" class="cls-1" x="799.96" y="434.54" width="1737.48" height="1577.39"/></clipPath><clipPath id="clip-path-29"><rect id="SVGID-29" data-name="SVGID" class="cls-1" x="849.09" y="470.59" width="1687.9" height="1540.37"/></clipPath><clipPath id="clip-path-31"><rect id="SVGID-31" data-name="SVGID" class="cls-1" x="898.22" y="506.56" width="1638.34" height="1503.5"/></clipPath><clipPath id="clip-path-32"><rect id="SVGID-32" data-name="SVGID" class="cls-1" x="898.22" y="506.56" width="1638.34" height="1503.5"/></clipPath><clipPath id="clip-path-33"><rect id="SVGID-33" data-name="SVGID" class="cls-1" x="947.33" y="542.47" width="1588.8" height="1466.77"/></clipPath><clipPath id="clip-path-35"><rect id="SVGID-35" data-name="SVGID" class="cls-1" x="996.44" y="578.3" width="1539.27" height="1430.2"/></clipPath><clipPath id="clip-path-36"><rect id="SVGID-36" data-name="SVGID" class="cls-1" x="996.44" y="578.3" width="1539.27" height="1430.2"/></clipPath><clipPath id="clip-path-37"><rect id="SVGID-37" data-name="SVGID" class="cls-1" x="1045.53" y="614.03" width="1489.77" height="1393.82"/></clipPath><clipPath id="clip-path-38"><rect id="SVGID-38" data-name="SVGID" class="cls-1" x="1045.53" y="614.03" width="1489.77" height="1393.82"/></clipPath><clipPath id="clip-path-39"><rect id="SVGID-39" data-name="SVGID" class="cls-1" x="1094.6" y="649.65" width="1440.3" height="1357.65"/></clipPath><clipPath id="clip-path-40"><rect id="SVGID-40" data-name="SVGID" class="cls-1" x="1094.61" y="649.65" width="1440.3" height="1357.66"/></clipPath><clipPath id="clip-path-41"><rect id="SVGID-41" data-name="SVGID" class="cls-1" x="1143.66" y="685.15" width="1390.85" height="1321.74"/></clipPath><clipPath id="clip-path-42"><rect id="SVGID-42" data-name="SVGID" class="cls-1" x="1143.67" y="685.15" width="1390.85" height="1321.74"/></clipPath><clipPath id="clip-path-43"><rect id="SVGID-43" data-name="SVGID" class="cls-1" x="1192.7" y="720.51" width="1341.45" height="1286.11"/></clipPath><clipPath id="clip-path-44"><rect id="SVGID-44" data-name="SVGID" class="cls-1" x="1192.7" y="720.51" width="1341.45" height="1286.11"/></clipPath><clipPath id="clip-path-45"><rect id="SVGID-45" data-name="SVGID" class="cls-1" x="1241.72" y="755.7" width="1292.07" height="1250.81"/></clipPath><clipPath id="clip-path-46"><rect id="SVGID-46" data-name="SVGID" class="cls-1" x="1241.72" y="755.7" width="1292.08" height="1250.81"/></clipPath><clipPath id="clip-path-47"><rect id="SVGID-47" data-name="SVGID" class="cls-1" x="1290.72" y="790.7" width="1242.76" height="1215.9"/></clipPath><clipPath id="clip-path-48"><rect id="SVGID-48" data-name="SVGID" class="cls-1" x="1290.72" y="790.7" width="1242.75" height="1215.9"/></clipPath><clipPath id="clip-path-49"><rect id="SVGID-49" data-name="SVGID" class="cls-1" x="1339.69" y="825.46" width="1193.48" height="1181.45"/></clipPath><clipPath id="clip-path-50"><rect id="SVGID-50" data-name="SVGID" class="cls-1" x="1339.69" y="825.46" width="1193.48" height="1181.45"/></clipPath><clipPath id="clip-path-51"><rect id="SVGID-51" data-name="SVGID" class="cls-1" x="1388.63" y="859.95" width="1144.28" height="1147.56"/></clipPath><clipPath id="clip-path-52"><rect id="SVGID-52" data-name="SVGID" class="cls-1" x="1388.63" y="859.95" width="1144.28" height="1147.56"/></clipPath><clipPath id="clip-path-53"><rect id="SVGID-53" data-name="SVGID" class="cls-1" x="1437.52" y="894.15" width="1095.14" height="1114.25"/></clipPath><clipPath id="clip-path-54"><rect id="SVGID-54" data-name="SVGID" class="cls-1" x="1437.52" y="894.14" width="1095.14" height="1114.25"/></clipPath><clipPath id="clip-path-55"><rect id="SVGID-55" data-name="SVGID" class="cls-1" x="1486.38" y="927.87" width="1046.08" height="1081.88"/></clipPath><clipPath id="clip-path-56"><rect id="SVGID-56" data-name="SVGID" class="cls-1" x="1486.38" y="927.87" width="1046.09" height="1081.88"/></clipPath><clipPath id="clip-path-57"><rect id="SVGID-57" data-name="SVGID" class="cls-1" x="1535.18" y="961.06" width="997.14" height="1050.58"/></clipPath><clipPath id="clip-path-58"><rect id="SVGID-58" data-name="SVGID" class="cls-1" x="1535.18" y="961.06" width="997.14" height="1050.58"/></clipPath><clipPath id="clip-path-59"><rect id="SVGID-59" data-name="SVGID" class="cls-1" x="1583.92" y="992.28" width="948.31" height="1023.92"/></clipPath><clipPath id="clip-path-60"><rect id="SVGID-60" data-name="SVGID" class="cls-1" x="1583.92" y="992.28" width="948.31" height="1023.92"/></clipPath><clipPath id="clip-path-61"><rect id="SVGID-61" data-name="SVGID" class="cls-1" x="1631.47" y="1020.44" width="901.66" height="1002.72"/></clipPath><clipPath id="clip-path-62"><rect id="SVGID-62" data-name="SVGID" class="cls-1" x="1631.48" y="1020.44" width="901.66" height="1002.72"/></clipPath><clipPath id="clip-path-63"><rect id="SVGID-63" data-name="SVGID" class="cls-1" x="1677.61" y="1048.37" width="858.05" height="982"/></clipPath><clipPath id="clip-path-65"><rect id="SVGID-65" data-name="SVGID" class="cls-1" x="1723.75" y="1075.98" width="814.44" height="961.92"/></clipPath><clipPath id="clip-path-66"><rect id="SVGID-66" data-name="SVGID" class="cls-1" x="1723.75" y="1075.98" width="814.44" height="961.92"/></clipPath><clipPath id="clip-path-67"><rect id="SVGID-67" data-name="SVGID" class="cls-1" x="1767.26" y="1103.17" width="776.03" height="942.66"/></clipPath><clipPath id="clip-path-68"><rect id="SVGID-68" data-name="SVGID" class="cls-1" x="1767.26" y="1103.17" width="776.03" height="942.66"/></clipPath><clipPath id="clip-path-69"><rect id="SVGID-69" data-name="SVGID" class="cls-1" x="1809.47" y="1129.8" width="740.33" height="924.55"/></clipPath><clipPath id="clip-path-70"><rect id="SVGID-70" data-name="SVGID" class="cls-1" x="1809.47" y="1129.8" width="740.33" height="924.55"/></clipPath></defs><title>onda</title><g class="cls-2"><g class="cls-3"><g class="cls-4"><g class="cls-5"><g class="cls-6"><path class="cls-7" d="M380.81,2024.23c100-68,151.11-202.46,122.6-322.74-20.13-85-74.39-157.37-129.25-225.12s-112.87-135.69-143.1-217.67-26.61-183,32.75-244.92c64.13-66.88,167.65-68.1,260-71.85s199-23.89,241.2-107c46-90.61-10.9-198.65-25.36-300.45-24-168.81,79.08-335.42,220.69-423.8S1274.9-.07,1442.15,1.29C1664.77,3.1,1894.81,46.52,2080.06,175s316.39,354.73,288.46,579.06l171.29,461Z"/></g></g></g><g class="cls-8"><g class="cls-9"><g class="cls-9"><path class="cls-10" d="M312.7,1029.53c62.89-65.49,164.24-66.85,254.73-70.67s194.85-23.63,236.39-104.92c45.28-88.6-9.93-194.22-23.7-293.74C761.59,426.31,824.7,293.84,923.28,202.38a491.78,491.78,0,0,1,74-56.7c138.79-86.57,308.11-108.74,471.83-107.84,217.93,1.19,443,42.86,624,167.47,180.84,125.43,307.29,351.23,280,570.22l166.08,453.58-1181.07,451c-2.45-.86-933.83,345.22-934.19,342.64,97.54-67.22,147.43-199.29,119.79-317.51-19.53-83.56-72.3-154.76-125.59-221.43s-109.58-133.49-138.73-214S254.28,1090.28,312.7,1029.53Z"/></g></g></g><g class="cls-11"><g class="cls-12"><g class="cls-12"><path class="cls-13" d="M361.59,1045.27c61.65-64.09,160.83-65.6,249.42-69.5S801.75,952.4,842.59,873c44.54-86.6-9-189.79-22-287C803,455.09,865,325.64,961.65,236.18a483.6,483.6,0,0,1,72.53-55.48c136-84.78,301.69-106.77,461.88-106.32,213.26.56,433.32,40.5,610.12,161.22C2282.61,358,2404.37,583.35,2377.77,797l160.87,446.19L1383.33,1692.79c-4.91-1.72-915.51,333.57-916.22,328.41,95-66.42,143.76-196.12,117-312.29-18.92-82.11-70.2-152.15-121.92-217.74S355.85,1359.88,327.81,1280.9,304.11,1104.88,361.59,1045.27Z"/></g></g></g><g class="cls-14"><g class="cls-15"><g class="cls-16"><path class="cls-17" d="M410.49,1061c60.4-62.69,157.42-64.36,244.11-68.33S841.21,969.57,881.36,892c43.79-84.6-8-185.37-20.36-280.35C844.33,483.86,905.33,357.43,1000,270a475.42,475.42,0,0,1,71-54.27c133.14-83,295.28-104.79,452-104.79,208.58-.07,423.64,38.14,596.21,155,172,119.31,289.09,344.26,263.16,552.56l155.65,438.81L1408.51,1705.49c-7.37-2.57-897.18,321.91-898.25,314.19,92.55-65.63,140.1-193,114.17-307.08-18.31-80.65-68.1-149.54-118.25-214s-103-129.09-130-206.58S353.93,1119.48,410.49,1061Z"/></g></g></g><g class="cls-18"><g class="cls-19"><g class="cls-19"><path class="cls-20" d="M459.39,1076.72c59.16-61.3,154-63.11,238.8-67.15s182.49-22.84,222-98.62c43-82.6-7-180.94-18.71-273.64-15.73-124.7,44.21-248.09,137-333.56A468.61,468.61,0,0,1,1108,250.69c130.31-81.15,288.86-102.81,442-103.26,203.91-.69,414,35.78,582.32,148.72,167.6,116.25,280,340.77,254.72,543.73l150.44,431.43L1433.7,1718.18c-9.82-3.42-878.86,310.25-880.29,300,90.05-64.82,136.44-189.79,111.37-301.85-17.71-79.21-66-146.93-114.59-210.35S450.43,1379,424.59,1303.06,403.77,1134.07,459.39,1076.72Z"/></g></g></g><g class="cls-21"><g class="cls-22"><g class="cls-23"><path class="cls-24" d="M508.3,1092.43c57.91-59.91,150.59-61.86,233.49-66s178.36-22.58,217.14-96.51c42.29-80.61-6.07-176.52-17-266.94C927.09,541.36,986,421,1076.81,337.52a460,460,0,0,1,68.09-51.85c127.48-79.34,282.45-100.83,432.06-101.74,199.23-1.31,404.3,33.43,568.42,142.48,163.19,113.19,270.89,337.28,246.29,534.9l145.22,424-1078,445.52c-12.27-4.29-860.52,298.59-862.3,285.71,87.56-64,132.76-186.63,108.55-296.62-17.09-77.77-63.9-144.33-110.91-206.67S497.72,1388.61,473,1314.13,453.61,1148.64,508.3,1092.43Z"/></g></g></g><g class="cls-25"><g class="cls-26"><g class="cls-27"><path class="cls-28" d="M557.21,1108.13c56.67-58.51,147.17-60.62,228.18-64.81S959.62,1021,997.71,948.9c41.55-78.6-5.1-172.09-15.37-260.23-13.86-118.58,44-235.92,132.86-317.4a452.24,452.24,0,0,1,66.61-50.62c124.66-77.55,276-98.86,422.12-100.22,194.56-1.93,394.63,31.07,554.52,136.23,158.79,110.14,261.8,333.79,237.86,526.07l140,416.66L1484.07,1743.53c-14.72-5.14-842.19,286.94-844.32,271.49,85-63.22,129.08-183.47,105.74-291.4-16.49-76.32-61.8-141.72-107.25-203S545,1398.16,521.38,1325.18,503.45,1163.2,557.21,1108.13Z"/></g></g></g><g class="cls-29"><g class="cls-30"><g class="cls-30"><path class="cls-31" d="M606.11,1123.82c55.56-57,143.76-59.38,222.87-63.63s170.12-22.07,207.51-92.33c40.81-76.6-4.14-167.67-13.71-253.53-12.92-115.52,43.84-229.84,130.8-309.31a445,445,0,0,1,65.14-49.42c121.83-75.74,269.62-96.87,412.17-98.69,189.88-2.55,384.95,28.71,540.63,130,154.37,107.07,252.7,330.3,229.42,517.23l134.8,409.28L1509.26,1756.19c-17.18-6-823.87,275.28-826.36,257.26,82.56-62.42,125.42-180.3,102.93-286.19C770,1652.4,726.13,1588.15,682.25,1528s-90-120.28-112.48-191.76S553.41,1177.87,606.11,1123.82Z"/></g></g></g><g class="cls-32"><g class="cls-33"><g class="cls-34"><path class="cls-35" d="M655,1139.49c54.33-55.58,140.35-58.13,217.56-62.46s166-21.81,202.69-90.23c40.07-74.59-3.17-163.24-12-246.83-12-112.45,43.72-223.75,128.74-301.22a436.9,436.9,0,0,1,63.66-48.2c119-73.94,263.22-94.9,402.23-97.17,185.2-3.18,375.29,26.35,526.73,123.74,150,104,243.6,326.81,221,508.4l129.59,401.9L1534.45,1768.83c-19.63-6.85-805.52,263.63-808.38,243,80.07-61.63,121.76-177.14,100.12-281-15.26-73.43-57.6-136.51-99.91-195.59s-86.67-118.09-108.1-188.07S603.27,1192.43,655,1139.49Z"/></g></g></g><g class="cls-36"><g class="cls-37"><g class="cls-37"><path class="cls-38" d="M704,1155.14c53.11-54.16,136.94-56.88,212.25-61.28s161.87-21.55,197.89-88.13c39.32-72.6-2.21-158.81-10.38-240.13-11-109.39,43.6-217.66,126.68-293.14a429.59,429.59,0,0,1,62.18-47c116.19-72.13,256.8-92.91,392.29-95.64,180.53-3.8,365.61,24,512.83,117.49,145.55,101,234.5,323.32,212.56,499.58l124.37,394.51-974.95,440.05c-22.09-7.71-787.21,252-790.42,228.8,77.57-60.83,118.09-174,97.32-275.74-14.66-72-55.51-133.9-96.25-191.9s-83.4-115.89-103.73-184.36S653.15,1207,704,1155.14Z"/></g></g></g><g class="cls-39"><g class="cls-40"><g class="cls-40"><path class="cls-41" d="M752.88,1170.78c51.88-52.76,133.53-55.63,207-60.11s157.74-21.29,193.07-86c38.57-70.59-1.24-154.38-8.72-233.43-10.11-106.33,43.48-211.57,124.62-285a422.72,422.72,0,0,1,60.7-45.78c113.37-70.32,250.39-90.93,382.36-94.11,175.85-4.43,355.93,21.63,498.93,111.24,141.14,97.9,225.4,319.83,204.12,490.74l119.17,387.13-949.2,438.69c-24.54-8.57-768.87,240.31-772.44,214.56,75.07-60,114.42-170.81,94.51-270.52-14.06-70.53-53.41-131.28-92.59-188.2S734.24,1436.23,715,1369.25,703,1221.48,752.88,1170.78Z"/></g></g></g><g class="cls-42"><g class="cls-43"><g class="cls-44"><path class="cls-45" d="M801.82,1186.4c50.65-51.35,130.11-54.39,201.63-58.93s153.63-21,188.26-83.94c37.83-68.59-.27-150-7-226.73-9.18-103.26,43.36-205.48,122.57-277a414.52,414.52,0,0,1,59.22-44.56c110.53-68.52,244-88.95,372.41-92.59,171.17-5.05,346.26,19.27,485,105C2360.63,602.52,2440.2,824,2419.58,989.59l114,379.74L1610.1,1806.66c-27-9.43-750.54,228.65-754.47,200.33,72.58-59.23,110.75-167.65,91.7-265.3C933.88,1672.61,896,1613,858.42,1557.17s-76.85-111.48-95-176.94S752.92,1236,801.82,1186.4Z"/></g></g></g><g class="cls-46"><g class="cls-47"><g class="cls-48"><path class="cls-49" d="M850.77,1202c49.42-49.94,126.69-53.15,196.32-57.76s149.5-20.78,183.45-81.84c37.08-66.6.68-145.54-5.39-220-8.24-100.2,43.24-199.39,120.51-268.88a405.69,405.69,0,0,1,57.74-43.35c107.71-66.71,237.56-87,362.46-91.07,166.5-5.67,336.6,16.92,471.15,98.76,132.32,91.77,207.2,312.85,187.25,473.08L2533,1383.26l-897.67,436c-29.45-10.29-732.21,217-736.5,186.09,70.09-58.43,107.08-164.48,88.89-260.07-12.84-67.63-49.21-126.07-85.24-180.83s-73.58-109.28-90.61-173.24S802.81,1250.46,850.77,1202Z"/></g></g></g><g class="cls-50"><g class="cls-51"><g class="cls-51"><path class="cls-52" d="M899.73,1217.57c48.19-48.53,123.27-51.9,191-56.59s145.37-20.51,178.63-79.74c36.34-64.59,1.65-141.11-3.73-213.33-7.3-97.13,43.12-193.3,118.46-260.79A399.93,399.93,0,0,1,1440.36,565c104.88-64.9,231.15-85,352.52-89.53,161.83-6.31,326.93,14.55,457.24,92.5C2378,656.67,2448.23,877.31,2429,1032.2l103.52,365-871.9,434.61c-31.91-11.15-713.88,205.33-718.53,171.86,67.59-57.63,103.42-161.32,86.08-254.85-12.23-66.19-47.11-123.47-81.58-177.14s-70.3-107.08-86.23-169.55S852.72,1264.91,899.73,1217.57Z"/></g></g></g><g class="cls-53"><g class="cls-54"><g class="cls-55"><path class="cls-56" d="M948.69,1233.11c47-47.12,119.87-50.64,185.7-55.42s141.25-20.25,173.82-77.64c35.59-62.58,2.62-136.68-2.06-206.62-6.37-94.08,43-187.22,116.39-252.71a392.16,392.16,0,0,1,54.79-40.92c102.06-63.1,224.73-83,342.58-88,157.15-6.93,317.25,12.19,443.34,86.25,123.5,85.66,189,305.87,170.4,455.42L2532,1411.05l-846.14,433.24c-34.36-12-695.55,193.68-700.56,157.63,65.1-56.83,99.75-158.15,83.27-249.63-11.62-64.74-45-120.85-77.91-173.45S923.6,1474,908.76,1413,902.63,1279.33,948.69,1233.11Z"/></g></g></g><g class="cls-57"><g class="cls-58"><g class="cls-58"><path class="cls-59" d="M997.67,1248.62c45.73-45.71,116.45-49.4,180.39-54.24s137.13-20,169-75.54c34.85-60.59,3.59-132.26-.39-199.93-5.44-91,42.87-181.12,114.33-244.62a384.43,384.43,0,0,1,53.31-39.71c99.23-61.29,218.32-81,332.64-86.48,152.47-7.56,307.57,9.83,429.44,80,119.09,82.6,179.91,302.39,162,446.59l93.1,350.21-820.38,431.87c-36.81-12.85-677.22,182-682.57,143.4,62.59-56,96.07-155,80.45-244.4-11-63.3-42.91-118.26-74.24-169.76S971,1483.34,957.22,1423.87,952.55,1293.72,997.67,1248.62Z"/></g></g></g><g class="cls-60"><g class="cls-61"><g class="cls-62"><path class="cls-63" d="M1046.65,1264.1c44.5-44.3,113-48.16,175.08-53.07s133-19.73,164.2-73.44c34.1-58.59,4.55-127.83,1.27-193.23-4.5-88,42.75-175,112.28-236.53a378.59,378.59,0,0,1,51.82-38.51c96.41-59.48,211.91-79,322.7-85,147.79-8.18,297.91,7.47,415.54,73.76,114.68,79.54,170.82,298.89,153.53,437.76L2531,1438.71l-794.62,430.51c-39.27-13.72-658.89,170.37-664.6,129.17,60.1-55.23,92.4-151.83,77.64-239.19-10.4-61.84-40.81-115.64-70.58-166.06s-60.47-100.47-73.1-158.44S1002.48,1308.08,1046.65,1264.1Z"/></g></g></g><g class="cls-64"><g class="cls-65"><g class="cls-66"><path class="cls-67" d="M1095.65,1279.54c43.27-42.9,109.63-46.91,169.78-51.9s128.88-19.47,159.38-71.34c33.35-56.58,5.51-123.41,2.93-186.53-3.57-84.88,42.63-168.95,110.22-228.44A370,370,0,0,1,1588.3,704c93.59-57.67,205.5-77.07,312.76-83.42,143.12-8.81,288.24,5.11,401.65,67.5C2413,764.6,2464.43,983.52,2447.8,1117.05l82.68,335.44-768.85,429.14c-41.72-14.57-640.57,158.71-646.64,114.93,57.61-54.43,88.74-148.66,74.84-234-9.8-60.4-38.71-113-66.91-162.38s-57.21-98.26-68.73-154.73S1052.43,1322.39,1095.65,1279.54Z"/></g></g></g><g class="cls-68"><g class="cls-69"><g class="cls-70"><path class="cls-71" d="M1144.67,1294.93c42-41.49,106.21-45.66,164.46-50.72S1433.89,1225,1463.7,1175c32.6-54.59,6.48-119,4.59-179.83-2.63-81.82,42.51-162.86,108.16-220.36a364.83,364.83,0,0,1,48.87-36.08c90.77-55.86,199.09-75.09,302.82-81.9,138.44-9.42,278.56,2.76,387.75,61.27,105.86,73.42,152.62,291.91,136.66,420.1l77.46,328L1786.92,1894c-44.18-15.43-622.23,147-628.66,100.7,55.11-53.63,85.07-145.49,72-228.74-9.19-59-36.62-110.42-63.24-158.68s-53.93-96.07-64.36-151S1102.39,1336.67,1144.67,1294.93Z"/></g></g></g><g class="cls-72"><g class="cls-73"><g class="cls-74"><path class="cls-75" d="M1193.7,1310.26c40.8-40.08,102.79-44.41,159.15-49.54s120.64-19,149.76-67.15c31.86-52.59,7.44-114.56,6.26-173.13-1.69-78.76,42.38-156.77,106.1-212.28a357,357,0,0,1,47.39-34.86c87.93-54.06,192.67-73.11,292.87-80.38,133.77-10,268.89.4,373.86,55,101.44,70.36,143.51,288.43,128.22,411.26l72.25,320.68L1812.24,1906.3c-46.64-16.29-603.9,135.39-610.69,86.46,52.62-52.83,81.4-142.32,69.22-223.51-8.58-57.51-34.52-107.82-59.58-155s-50.65-93.87-60-147.34S1152.36,1350.88,1193.7,1310.26Z"/></g></g></g><g class="cls-76"><g class="cls-77"><g class="cls-78"><path class="cls-79" d="M1242.75,1325.53c39.56-38.68,99.38-43.17,153.84-48.37s116.52-18.7,144.94-65.05c31.12-50.58,8.41-110.13,7.93-166.43-.76-75.69,42.26-150.68,104-204.19a351.05,351.05,0,0,1,45.91-33.65c85.11-52.26,186.26-71.13,282.93-78.85,129.1-10.68,259.22-2,360,48.77,97,67.31,134.42,284.94,119.79,402.44l67,313.28-691.56,425.06c-49.09-17.14-585.57,123.73-592.72,72.23,50.13-52,77.74-139.16,66.41-218.29-8-56.06-32.41-105.21-55.91-151.3s-47.38-91.67-55.6-143.64S1202.35,1365,1242.75,1325.53Z"/></g></g></g><g class="cls-80"><g class="cls-81"><g class="cls-82"><path class="cls-83" d="M1291.82,1340.73c38.33-37.28,96-41.93,148.54-47.2s112.38-18.44,140.12-63c30.37-48.58,9.38-105.71,9.59-159.73.18-72.64,42.14-144.6,102-196.1a342.57,342.57,0,0,1,44.43-32.44c82.29-50.45,179.84-69.16,273-77.33,124.42-11.3,249.54-4.32,346.06,42.53,92.62,64.24,125.32,281.44,111.35,393.6l61.83,305.9-665.8,423.7c-51.54-18-567.24,112.07-574.74,58,47.63-51.23,74.06-136,63.59-213.08-7.36-54.61-30.31-102.59-52.24-147.6s-44.1-89.47-51.22-139.93S1252.37,1379.1,1291.82,1340.73Z"/></g></g></g><g class="cls-84"><g class="cls-85"><g class="cls-86"><path class="cls-87" d="M1340.92,1355.83c37.09-35.87,92.55-40.68,143.22-46s108.27-18.19,135.31-60.86c29.63-46.58,10.34-101.27,11.26-153,1.11-69.57,42-138.52,99.93-188a336.54,336.54,0,0,1,42.95-31.23c79.46-48.65,173.43-67.17,263-75.8,119.75-11.92,239.88-6.68,332.17,36.28,88.21,61.19,116.22,278,102.92,384.78l56.61,298.52-640,422.32c-54-18.85-548.91,100.42-556.77,43.77,45.13-50.43,70.4-132.83,60.79-207.85-6.76-53.16-28.22-100-48.57-143.92s-40.84-87.26-46.86-136.23S1302.41,1393.08,1340.92,1355.83Z"/></g></g></g><g class="cls-88"><g class="cls-89"><g class="cls-90"><path class="cls-91" d="M1390,1370.83c35.85-34.48,89.14-39.43,137.91-44.86s104.15-17.91,130.5-58.75c28.88-44.58,11.31-96.85,12.92-146.32,2.05-66.51,41.9-132.42,97.87-179.94a330.77,330.77,0,0,1,41.48-30c76.63-46.84,167-65.19,253.1-74.27,115.07-12.55,230.2-9,318.26,30,83.81,58.12,107.13,274.47,94.49,375.94l51.4,291.14-614.27,421c-56.44-19.72-530.58,88.76-538.79,29.54,42.63-49.64,66.72-129.67,58-202.63-6.14-51.72-26.11-97.38-44.9-140.23s-37.56-85.06-42.48-132.52S1352.47,1407,1390,1370.83Z"/></g></g></g><g class="cls-92"><g class="cls-93"><g class="cls-94"><path class="cls-95" d="M1439.19,1385.69c34.62-33.07,85.73-38.18,132.61-43.68s100-17.66,125.68-56.66c28.14-42.58,12.27-92.42,14.59-139.62,3-63.45,41.77-126.34,95.81-171.84a324.28,324.28,0,0,1,40-28.81c73.81-45,160.6-63.21,243.16-72.74,110.39-13.18,220.52-11.41,304.37,23.78,79.39,55.07,98,271,86.05,367.11L2527.65,1547l-588.51,419.6c-58.9-20.57-512.25,77.11-520.83,15.31,40.14-48.84,63.06-126.51,55.17-197.41-5.54-50.27-24-94.77-41.23-136.53s-34.29-82.86-38.11-128.83S1402.57,1420.69,1439.19,1385.69Z"/></g></g></g><g class="cls-96"><g class="cls-97"><g class="cls-98"><path class="cls-99" d="M1488.38,1400.34c33.38-31.68,82.32-36.94,127.3-42.51s95.9-17.4,120.87-54.56c27.39-40.58,13.24-88,16.25-132.92,3.91-60.39,41.66-120.25,93.75-163.76A319.45,319.45,0,0,1,1885.07,979c71-43.22,154.21-61.07,233.22-71.22C2224,894.19,2329.14,894,2408.76,925.31c75,52,88.93,267.49,77.62,358.29l41,276.37L1964.62,1978.2c-61.36-21.43-493.93,65.45-502.86,1.07,37.65-48,59.39-123.33,52.36-192.18-4.93-48.82-21.92-92.16-37.57-132.85s-31-80.65-33.73-125.12S1452.7,1434.21,1488.38,1400.34Z"/></g></g></g><g class="cls-100"><g class="cls-101"><g class="cls-102"><path class="cls-103" d="M1537.62,1414.81c32.13-30.27,78.9-35.69,122-41.33s91.77-17.14,116.06-52.46c26.65-38.58,14.21-83.57,17.91-126.22,4.86-57.32,41.54-114.16,91.7-155.67a312.65,312.65,0,0,1,37-26.38c68.16-41.42,147.8-59.09,223.28-69.7,101.07-14.21,201.18-16.12,276.57,11.29,70.57,48.95,79.83,264,69.19,349.45l35.76,269-537,416.87c-63.81-22.29-475.59,53.79-484.88-13.16,35.15-47.23,55.72-120.17,49.55-187-4.32-47.38-19.82-89.56-33.91-129.16s-27.73-78.46-29.35-121.42S1502.87,1447.56,1537.62,1414.81Z"/></g></g></g><g class="cls-104"><g class="cls-105"><g class="cls-106"><path class="cls-107" d="M1586.91,1429c30.88-28.88,75.48-34.44,116.67-40.16s87.65-16.88,111.25-50.36c25.89-36.58,15.16-79.14,19.57-119.52,5.79-54.26,41.42-108.07,89.63-147.59a310.42,310.42,0,0,1,35.57-25.17c65.33-39.61,141.39-57.11,213.33-68.17,96.41-14.82,191.51-18.47,262.68,5.05,66.16,45.89,70.73,260.51,60.75,340.62l30.55,261.6L2015.7,2000.81c-66.27-23.15-457.27,42.13-466.91-27.39,32.66-46.44,52-117,46.74-181.74-3.72-45.93-17.72-87-30.23-125.47s-24.47-76.26-25-117.71S1553.09,1460.62,1586.91,1429Z"/></g></g></g><g class="cls-108"><g class="cls-109"><g class="cls-110"><path class="cls-111" d="M1636.26,1441.52c29.64-27.48,72.07-33.19,111.36-39s83.53-16.62,106.43-48.27c25.15-34.57,16.13-74.71,21.24-112.82,6.73-51.19,41.3-102,87.58-139.5a303.87,303.87,0,0,1,34.08-24c62.51-37.81,135-55.13,203.4-66.64,91.72-15.45,181.83-20.84,248.78-1.21,61.74,42.83,61.63,257,52.32,331.8l25.33,254.21L2041.33,2010.3c-68.72-24-438.93,30.47-448.93-41.62,30.15-45.64,48.38-113.84,43.93-176.52-3.11-44.48-15.62-84.34-26.57-121.77s-21.19-74.06-20.6-114S1603.38,1472,1636.26,1441.52Z"/></g></g></g><g class="cls-112"><g class="cls-113"><g class="cls-114"><path class="cls-115" d="M1686.59,1451.38c28.39-26.1,68.66-32,106.05-37.82s79.41-16.36,101.62-46.17c24.41-32.56,17.1-70.28,22.91-106.11,7.66-48.13,41.17-95.9,85.52-131.42a299.74,299.74,0,0,1,32.6-22.74c59.68-36,128.57-53.14,193.45-65.11,87.06-16.07,172.17-23.2,234.88-7.46,57.34,39.77,52.53,253.53,43.89,323l20.13,246.83L2068,2017.13c-71.18-24.86-420.6,18.81-431-55.86,27.66-44.84,44.72-110.68,41.12-171.29-2.5-43-13.52-81.74-22.9-118.09S1637.29,1600,1639,1561.58,1654.64,1480.73,1686.59,1451.38Z"/></g></g></g><g class="cls-116"><g class="cls-117"><g class="cls-117"><path class="cls-118" d="M1738.55,1461.47c27.15-24.7,65.25-30.7,100.75-36.64s75.27-16.1,96.8-44.07c23.67-30.57,18.07-65.86,24.57-99.41,8.6-45.08,41-89.81,83.46-123.33a296.06,296.06,0,0,1,31.13-21.53c56.86-34.19,122.16-51.17,183.51-63.59,82.38-16.7,162.49-25.56,221-13.7,52.93,36.71,43.44,250,35.46,314.13l14.91,239.45L2096.2,2024.19c-73.64-25.71-402.28,7.16-413-70.09,25.17-44,41-107.51,38.31-166.07-1.89-41.59-11.42-79.12-19.23-114.39S1687.64,1604,1690.43,1567,1707.54,1489.7,1738.55,1461.47Z"/></g></g></g><g class="cls-119"><g class="cls-120"><g class="cls-121"><path class="cls-122" d="M1790.52,1471.88c25.89-23.31,61.83-29.46,95.43-35.46s71.16-15.85,92-42c22.92-28.58,19-61.44,26.24-92.72,9.53-42,40.93-83.72,81.4-115.25a294.74,294.74,0,0,1,29.65-20.31c54-32.39,115.75-49.19,173.56-62.07,77.72-17.31,152.83-27.91,207.09-19.94,48.52,33.65,34.34,246.55,27,305.3l9.7,232.06-408.16,410.06c-76.08-26.58-384-4.51-395-84.33,22.67-43.23,37.38-104.35,35.5-160.85-1.28-40.14-9.32-76.51-15.56-110.7s-11.37-67.45-7.48-102.9S1760.43,1499,1790.52,1471.88Z"/></g></g></g><g class="cls-123"><g class="cls-124"><g class="cls-125"><path class="cls-126" d="M1839.85,1482.7c24.64-21.92,58.42-28.21,90.13-34.29s67-15.58,87.18-39.87c22.17-26.57,20-57,27.9-86,10.47-39,40.8-77.64,79.34-107.16a295.35,295.35,0,0,1,28.18-19.11c51.2-30.58,109.33-47.2,163.61-60.54,73-17.94,143.16-30.27,193.19-26.19,44.11,30.59,25.24,243.06,18.59,296.47l4.49,224.68-382.4,408.69c-78.54-27.43-365.62-16.16-377-98.56,20.18-42.43,33.72-101.18,32.69-155.62-.67-38.7-7.22-73.91-11.89-107s-8.09-65.24-3.1-99.2S1810.69,1508.66,1839.85,1482.7Z"/></g></g></g><g class="cls-127"><g class="cls-128"><g class="cls-129"><path class="cls-130" d="M1887.89,1494.09c23.38-20.54,55-27,84.81-33.12s62.91-15.32,82.37-37.77c21.42-24.57,20.95-52.58,29.56-79.31,11.4-35.89,40.69-71.55,77.29-99.08a295.52,295.52,0,0,1,26.69-17.88c48.38-28.78,102.93-45.23,153.68-59,68.37-18.57,133.48-32.63,179.29-32.44,39.7,27.53,16.14,239.57,10.16,287.64L2531,1640.4l-356.64,407.33c-81-28.29-347.28-27.81-359.07-112.79,17.68-41.63,30-98,29.88-150.4-.07-37.25-5.12-71.3-8.23-103.32s-4.81-63,1.27-95.5S1859.65,1518.91,1887.89,1494.09Z"/></g></g></g></g></g></svg>