<svg xmlns="http://www.w3.org/2000/svg" xmlns:xlink="http://www.w3.org/1999/xlink" version="1.1" width="1000" height="1000" viewBox="0 0 1000 1000" xml:space="preserve">
<desc>Created with Fabric.js 3.5.0</desc>
<defs>
</defs>
<rect x="0" y="0" width="100%" height="100%" fill="#ffffff"/>
<g transform="matrix(0.4714 0 0 0.4714 384.0748 501.0437)" id="819897">
<g style="" vector-effect="non-scaling-stroke">
		<g transform="matrix(1 0 0 1 69.5304 -42.9938)" id="Capa_1" clip-path="url(#CLIPPATH_1)">
<clipPath id="CLIPPATH_1">
	<rect transform="matrix(1 0 0 1 0.3646 3.7187)" id="SVGID-4" x="-1166.655" y="-1017.81" rx="0" ry="0" width="2333.31" height="2035.62"/>
</clipPath>
<path style="stroke: rgb(248,183,124); stroke-width: 1.2; stroke-dasharray: none; stroke-linecap: butt; stroke-dashoffset: 0; stroke-linejoin: miter; stroke-miterlimit: 10; is-custom-font: none; font-file-url: none; fill: none; fill-rule: nonzero; opacity: 0.17;" transform=" translate(-1376.1204, -1012.7313)" d="M 380.81 2024.23 c 100 -68 151.11 -202.46 122.6 -322.74 c -20.13 -85 -74.39 -157.37 -129.25 -225.12 s -112.87 -135.69 -143.1 -217.67 s -26.61 -183 32.75 -244.92 c 64.13 -66.88 167.65 -68.1 260 -71.85 s 199 -23.89 241.2 -107 c 46 -90.61 -10.9 -198.65 -25.36 -300.45 c -24 -168.81 79.08 -335.42 220.69 -423.8 S 1274.9 -0.07 1442.15 1.29 C 1664.77 3.1 1894.81 46.52 2080.06 175 s 316.39 354.73 288.46 579.06 l 171.29 461 Z" stroke-linecap="round"/>
</g>
		<g transform="matrix(1 0 0 1 93.8514 -25.4358)" id="Capa_1" clip-path="url(#CLIPPATH_2)">
<clipPath id="CLIPPATH_2">
	<rect transform="matrix(1 0 0 1 0.3987 -0.0092)" id="SVGID-5" x="-1141.81" y="-995.15" rx="0" ry="0" width="2283.62" height="1990.3"/>
</clipPath>
<path style="stroke: rgb(248,183,124); stroke-width: 1.24; stroke-dasharray: none; stroke-linecap: butt; stroke-dashoffset: 0; stroke-linejoin: miter; stroke-miterlimit: 10; is-custom-font: none; font-file-url: none; fill: none; fill-rule: nonzero; opacity: 0.17;" transform=" translate(-1400.4413, -1030.2892)" d="M 312.7 1029.53 c 62.89 -65.49 164.24 -66.85 254.73 -70.67 s 194.85 -23.63 236.39 -104.92 c 45.28 -88.6 -9.93 -194.22 -23.7 -293.74 C 761.59 426.31 824.7 293.84 923.28 202.38 a 491.78 491.78 0 0 1 74 -56.7 c 138.79 -86.57 308.11 -108.74 471.83 -107.84 c 217.93 1.19 443 42.86 624 167.47 c 180.84 125.43 307.29 351.23 280 570.22 l 166.08 453.58 l -1181.07 451 c -2.45 -0.86 -933.83 345.22 -934.19 342.64 c 97.54 -67.22 147.43 -199.29 119.79 -317.51 c -19.53 -83.56 -72.3 -154.76 -125.59 -221.43 s -109.58 -133.49 -138.73 -214 S 254.28 1090.28 312.7 1029.53 Z" stroke-linecap="round"/>
</g>
		<g transform="matrix(1 0 0 1 118.2336 -7.9089)" id="Capa_1" clip-path="url(#CLIPPATH_3)">
<clipPath id="CLIPPATH_3">
	<rect transform="matrix(1 0 0 1 0.3765 -0.0011)" id="SVGID-7" x="-1116.97" y="-976.225" rx="0" ry="0" width="2233.94" height="1952.45"/>
</clipPath>
<path style="stroke: rgb(248,183,124); stroke-width: 1.28; stroke-dasharray: none; stroke-linecap: butt; stroke-dashoffset: 0; stroke-linejoin: miter; stroke-miterlimit: 10; is-custom-font: none; font-file-url: none; fill: none; fill-rule: nonzero; opacity: 0.17;" transform=" translate(-1424.8235, -1047.8161)" d="M 361.59 1045.27 c 61.65 -64.09 160.83 -65.6 249.42 -69.5 S 801.75 952.4 842.59 873 c 44.54 -86.6 -9 -189.79 -22 -287 C 803 455.09 865 325.64 961.65 236.18 a 483.6 483.6 0 0 1 72.53 -55.48 c 136 -84.78 301.69 -106.77 461.88 -106.32 c 213.26 0.56 433.32 40.5 610.12 161.22 C 2282.61 358 2404.37 583.35 2377.77 797 l 160.87 446.19 L 1383.33 1692.79 c -4.91 -1.72 -915.51 333.57 -916.22 328.41 c 95 -66.42 143.76 -196.12 117 -312.29 c -18.92 -82.11 -70.2 -152.15 -121.92 -217.74 S 355.85 1359.88 327.81 1280.9 S 304.11 1104.88 361.59 1045.27 Z" stroke-linecap="round"/>
</g>
		<g transform="matrix(1 0 0 1 142.5474 9.6528)" id="Capa_1" clip-path="url(#CLIPPATH_4)">
<clipPath id="CLIPPATH_4">
	<rect transform="matrix(1 0 0 1 0.4126 -0.0228)" id="SVGID-10" x="-1092.13" y="-957.325" rx="0" ry="0" width="2184.26" height="1914.65"/>
</clipPath>
<path style="stroke: rgb(248,183,124); stroke-width: 1.33; stroke-dasharray: none; stroke-linecap: butt; stroke-dashoffset: 0; stroke-linejoin: miter; stroke-miterlimit: 10; is-custom-font: none; font-file-url: none; fill: none; fill-rule: nonzero; opacity: 0.17;" transform=" translate(-1449.1374, -1065.3778)" d="M 410.49 1061 c 60.4 -62.69 157.42 -64.36 244.11 -68.33 S 841.21 969.57 881.36 892 c 43.79 -84.6 -8 -185.37 -20.36 -280.35 C 844.33 483.86 905.33 357.43 1000 270 a 475.42 475.42 0 0 1 71 -54.27 c 133.14 -83 295.28 -104.79 452 -104.79 c 208.58 -0.07 423.64 38.14 596.21 155 c 172 119.31 289.09 344.26 263.16 552.56 l 155.65 438.81 L 1408.51 1705.49 c -7.37 -2.57 -897.18 321.91 -898.25 314.19 c 92.55 -65.63 140.1 -193 114.17 -307.08 c -18.31 -80.65 -68.1 -149.54 -118.25 -214 s -103 -129.09 -130 -206.58 S 353.93 1119.48 410.49 1061 Z" stroke-linecap="round"/>
</g>
		<g transform="matrix(1 0 0 1 166.9399 27.1981)" id="Capa_1" clip-path="url(#CLIPPATH_5)">
<clipPath id="CLIPPATH_5">
	<rect transform="matrix(1 0 0 1 0.375 -0.0231)" id="SVGID-11" x="-1067.295" y="-938.45" rx="0" ry="0" width="2134.59" height="1876.9"/>
</clipPath>
<path style="stroke: rgb(248,183,124); stroke-width: 1.37; stroke-dasharray: none; stroke-linecap: butt; stroke-dashoffset: 0; stroke-linejoin: miter; stroke-miterlimit: 10; is-custom-font: none; font-file-url: none; fill: none; fill-rule: nonzero; opacity: 0.17;" transform=" translate(-1473.53, -1082.9231)" d="M 459.39 1076.72 c 59.16 -61.3 154 -63.11 238.8 -67.15 s 182.49 -22.84 222 -98.62 c 43 -82.6 -7 -180.94 -18.71 -273.64 c -15.73 -124.7 44.21 -248.09 137 -333.56 A 468.61 468.61 0 0 1 1108 250.69 c 130.31 -81.15 288.86 -102.81 442 -103.26 c 203.91 -0.69 414 35.78 582.32 148.72 c 167.6 116.25 280 340.77 254.72 543.73 l 150.44 431.43 L 1433.7 1718.18 c -9.82 -3.42 -878.86 310.25 -880.29 300 c 90.05 -64.82 136.44 -189.79 111.37 -301.85 c -17.71 -79.21 -66 -146.93 -114.59 -210.35 S 450.43 1379 424.59 1303.06 S 403.77 1134.07 459.39 1076.72 Z" stroke-linecap="round"/>
</g>
		<g transform="matrix(1 0 0 1 191.2949 44.692)" id="Capa_1" clip-path="url(#CLIPPATH_6)">
<clipPath id="CLIPPATH_6">
	<rect transform="matrix(1 0 0 1 0.38 0.023)" id="SVGID-14" x="-1042.465" y="-919.6" rx="0" ry="0" width="2084.93" height="1839.2"/>
</clipPath>
<path style="stroke: rgb(248,183,124); stroke-width: 1.41; stroke-dasharray: none; stroke-linecap: butt; stroke-dashoffset: 0; stroke-linejoin: miter; stroke-miterlimit: 10; is-custom-font: none; font-file-url: none; fill: none; fill-rule: nonzero; opacity: 0.17;" transform=" translate(-1497.885, -1100.417)" d="M 508.3 1092.43 c 57.91 -59.91 150.59 -61.86 233.49 -66 s 178.36 -22.58 217.14 -96.51 c 42.29 -80.61 -6.07 -176.52 -17 -266.94 C 927.09 541.36 986 421 1076.81 337.52 a 460 460 0 0 1 68.09 -51.85 c 127.48 -79.34 282.45 -100.83 432.06 -101.74 c 199.23 -1.31 404.3 33.43 568.42 142.48 c 163.19 113.19 270.89 337.28 246.29 534.9 l 145.22 424 l -1078 445.52 c -12.27 -4.29 -860.52 298.59 -862.3 285.71 c 87.56 -64 132.76 -186.63 108.55 -296.62 c -17.09 -77.77 -63.9 -144.33 -110.91 -206.67 S 497.72 1388.61 473 1314.13 S 453.61 1148.64 508.3 1092.43 Z" stroke-linecap="round"/>
</g>
		<g transform="matrix(1 0 0 1 215.6356 62.2565)" id="Capa_1" clip-path="url(#CLIPPATH_7)">
<clipPath id="CLIPPATH_7">
	<rect transform="matrix(1 0 0 1 0.3794 0.0086)" id="SVGID-16" x="-1017.635" y="-900.79" rx="0" ry="0" width="2035.27" height="1801.58"/>
</clipPath>
<path style="stroke: rgb(248,183,124); stroke-width: 1.45; stroke-dasharray: none; stroke-linecap: butt; stroke-dashoffset: 0; stroke-linejoin: miter; stroke-miterlimit: 10; is-custom-font: none; font-file-url: none; fill: none; fill-rule: nonzero; opacity: 0.17;" transform=" translate(-1522.2256, -1117.9814)" d="M 557.21 1108.13 c 56.67 -58.51 147.17 -60.62 228.18 -64.81 S 959.62 1021 997.71 948.9 c 41.55 -78.6 -5.1 -172.09 -15.37 -260.23 c -13.86 -118.58 44 -235.92 132.86 -317.4 a 452.24 452.24 0 0 1 66.61 -50.62 c 124.66 -77.55 276 -98.86 422.12 -100.22 c 194.56 -1.93 394.63 31.07 554.52 136.23 c 158.79 110.14 261.8 333.79 237.86 526.07 l 140 416.66 L 1484.07 1743.53 c -14.72 -5.14 -842.19 286.94 -844.32 271.49 c 85 -63.22 129.08 -183.47 105.74 -291.4 c -16.49 -76.32 -61.8 -141.72 -107.25 -203 S 545 1398.16 521.38 1325.18 S 503.45 1163.2 557.21 1108.13 Z" stroke-linecap="round"/>
</g>
		<g transform="matrix(1 0 0 1 240.003 79.799)" id="Capa_1" clip-path="url(#CLIPPATH_8)">
<clipPath id="CLIPPATH_8">
	<rect transform="matrix(1 0 0 1 0.372 -0.004)" id="SVGID-17" x="-992.795" y="-882" rx="0" ry="0" width="1985.59" height="1764"/>
</clipPath>
<path style="stroke: rgb(248,183,124); stroke-width: 1.5; stroke-dasharray: none; stroke-linecap: butt; stroke-dashoffset: 0; stroke-linejoin: miter; stroke-miterlimit: 10; is-custom-font: none; font-file-url: none; fill: none; fill-rule: nonzero; opacity: 0.17;" transform=" translate(-1546.593, -1135.524)" d="M 606.11 1123.82 c 55.56 -57 143.76 -59.38 222.87 -63.63 s 170.12 -22.07 207.51 -92.33 c 40.81 -76.6 -4.14 -167.67 -13.71 -253.53 c -12.92 -115.52 43.84 -229.84 130.8 -309.31 a 445 445 0 0 1 65.14 -49.42 c 121.83 -75.74 269.62 -96.87 412.17 -98.69 c 189.88 -2.55 384.95 28.71 540.63 130 c 154.37 107.07 252.7 330.3 229.42 517.23 l 134.8 409.28 L 1509.26 1756.19 c -17.18 -6 -823.87 275.28 -826.36 257.26 c 82.56 -62.42 125.42 -180.3 102.93 -286.19 C 770 1652.4 726.13 1588.15 682.25 1528 s -90 -120.28 -112.48 -191.76 S 553.41 1177.87 606.11 1123.82 Z" stroke-linecap="round"/>
</g>
		<g transform="matrix(1 0 0 1 264.3544 97.3276)" id="Capa_1" clip-path="url(#CLIPPATH_9)">
<clipPath id="CLIPPATH_9">
	<rect transform="matrix(1 0 0 1 0.3656 0.0124)" id="SVGID-20" x="-967.97" y="-863.255" rx="0" ry="0" width="1935.94" height="1726.51"/>
</clipPath>
<path style="stroke: rgb(248,183,124); stroke-width: 1.54; stroke-dasharray: none; stroke-linecap: butt; stroke-dashoffset: 0; stroke-linejoin: miter; stroke-miterlimit: 10; is-custom-font: none; font-file-url: none; fill: none; fill-rule: nonzero; opacity: 0.17;" transform=" translate(-1570.9444, -1153.0526)" d="M 655 1139.49 c 54.33 -55.58 140.35 -58.13 217.56 -62.46 s 166 -21.81 202.69 -90.23 c 40.07 -74.59 -3.17 -163.24 -12 -246.83 c -12 -112.45 43.72 -223.75 128.74 -301.22 a 436.9 436.9 0 0 1 63.66 -48.2 c 119 -73.94 263.22 -94.9 402.23 -97.17 c 185.2 -3.18 375.29 26.35 526.73 123.74 c 150 104 243.6 326.81 221 508.4 l 129.59 401.9 L 1534.45 1768.83 c -19.63 -6.85 -805.52 263.63 -808.38 243 c 80.07 -61.63 121.76 -177.14 100.12 -281 c -15.26 -73.43 -57.6 -136.51 -99.91 -195.59 s -86.67 -118.09 -108.1 -188.07 S 603.27 1192.43 655 1139.49 Z" stroke-linecap="round"/>
</g>
		<g transform="matrix(1 0 0 1 288.7388 114.8758)" id="Capa_1" clip-path="url(#CLIPPATH_10)">
<clipPath id="CLIPPATH_10">
	<rect transform="matrix(1 0 0 1 0.3312 0.0042)" id="SVGID-21" x="-943.16" y="-844.545" rx="0" ry="0" width="1886.32" height="1689.09"/>
</clipPath>
<path style="stroke: rgb(248,183,124); stroke-width: 1.58; stroke-dasharray: none; stroke-linecap: butt; stroke-dashoffset: 0; stroke-linejoin: miter; stroke-miterlimit: 10; is-custom-font: none; font-file-url: none; fill: none; fill-rule: nonzero; opacity: 0.17;" transform=" translate(-1595.3288, -1170.6008)" d="M 704 1155.14 c 53.11 -54.16 136.94 -56.88 212.25 -61.28 s 161.87 -21.55 197.89 -88.13 c 39.32 -72.6 -2.21 -158.81 -10.38 -240.13 c -11 -109.39 43.6 -217.66 126.68 -293.14 a 429.59 429.59 0 0 1 62.18 -47 c 116.19 -72.13 256.8 -92.91 392.29 -95.64 c 180.53 -3.8 365.61 24 512.83 117.49 c 145.55 101 234.5 323.32 212.56 499.58 l 124.37 394.51 l -974.95 440.05 c -22.09 -7.71 -787.21 252 -790.42 228.8 c 77.57 -60.83 118.09 -174 97.32 -275.74 c -14.66 -72 -55.51 -133.9 -96.25 -191.9 s -83.4 -115.89 -103.73 -184.36 S 653.15 1207 704 1155.14 Z" stroke-linecap="round"/>
</g>
		<g transform="matrix(1 0 0 1 313.0671 132.5044)" id="Capa_1" clip-path="url(#CLIPPATH_11)">
<clipPath id="CLIPPATH_11">
	<rect transform="matrix(1 0 0 1 0.3479 -0.0795)" id="SVGID-23" x="-918.345" y="-825.88" rx="0" ry="0" width="1836.69" height="1651.76"/>
</clipPath>
<path style="stroke: rgb(248,183,124); stroke-width: 1.63; stroke-dasharray: none; stroke-linecap: butt; stroke-dashoffset: 0; stroke-linejoin: miter; stroke-miterlimit: 10; is-custom-font: none; font-file-url: none; fill: none; fill-rule: nonzero; opacity: 0.17;" transform=" translate(-1619.6571, -1188.2295)" d="M 752.88 1170.78 c 51.88 -52.76 133.53 -55.63 207 -60.11 s 157.74 -21.29 193.07 -86 c 38.57 -70.59 -1.24 -154.38 -8.72 -233.43 c -10.11 -106.33 43.48 -211.57 124.62 -285 a 422.72 422.72 0 0 1 60.7 -45.78 c 113.37 -70.32 250.39 -90.93 382.36 -94.11 c 175.85 -4.43 355.93 21.63 498.93 111.24 c 141.14 97.9 225.4 319.83 204.12 490.74 l 119.17 387.13 l -949.2 438.69 c -24.54 -8.57 -768.87 240.31 -772.44 214.56 c 75.07 -60 114.42 -170.81 94.51 -270.52 c -14.06 -70.53 -53.41 -131.28 -92.59 -188.2 S 734.24 1436.23 715 1369.25 S 703 1221.48 752.88 1170.78 Z" stroke-linecap="round"/>
</g>
		<g transform="matrix(1 0 0 1 337.4139 149.9498)" id="Capa_1" clip-path="url(#CLIPPATH_12)">
<clipPath id="CLIPPATH_12">
	<rect transform="matrix(1 0 0 1 0.346 0.0152)" id="SVGID-26" x="-893.54" y="-807.26" rx="0" ry="0" width="1787.08" height="1614.52"/>
</clipPath>
<path style="stroke: rgb(248,183,124); stroke-width: 1.67; stroke-dasharray: none; stroke-linecap: butt; stroke-dashoffset: 0; stroke-linejoin: miter; stroke-miterlimit: 10; is-custom-font: none; font-file-url: none; fill: none; fill-rule: nonzero; opacity: 0.17;" transform=" translate(-1644.004, -1205.6748)" d="M 801.82 1186.4 c 50.65 -51.35 130.11 -54.39 201.63 -58.93 s 153.63 -21 188.26 -83.94 c 37.83 -68.59 -0.27 -150 -7 -226.73 c -9.18 -103.26 43.36 -205.48 122.57 -277 a 414.52 414.52 0 0 1 59.22 -44.56 c 110.53 -68.52 244 -88.95 372.41 -92.59 c 171.17 -5.05 346.26 19.27 485 105 C 2360.63 602.52 2440.2 824 2419.58 989.59 l 114 379.74 L 1610.1 1806.66 c -27 -9.43 -750.54 228.65 -754.47 200.33 c 72.58 -59.23 110.75 -167.65 91.7 -265.3 C 933.88 1672.61 896 1613 858.42 1557.17 s -76.85 -111.48 -95 -176.94 S 752.92 1236 801.82 1186.4 Z" stroke-linecap="round"/>
</g>
		<g transform="matrix(1 0 0 1 361.753 167.5338)" id="Capa_1" clip-path="url(#CLIPPATH_13)">
<clipPath id="CLIPPATH_13">
	<rect transform="matrix(1 0 0 1 0.357 -0.0239)" id="SVGID-28" x="-868.74" y="-788.695" rx="0" ry="0" width="1737.48" height="1577.39"/>
</clipPath>
<path style="stroke: rgb(248,183,124); stroke-width: 1.71; stroke-dasharray: none; stroke-linecap: butt; stroke-dashoffset: 0; stroke-linejoin: miter; stroke-miterlimit: 10; is-custom-font: none; font-file-url: none; fill: none; fill-rule: nonzero; opacity: 0.17;" transform=" translate(-1668.343, -1223.2589)" d="M 850.77 1202 c 49.42 -49.94 126.69 -53.15 196.32 -57.76 s 149.5 -20.78 183.45 -81.84 c 37.08 -66.6 0.68 -145.54 -5.39 -220 c -8.24 -100.2 43.24 -199.39 120.51 -268.88 a 405.69 405.69 0 0 1 57.74 -43.35 c 107.71 -66.71 237.56 -87 362.46 -91.07 c 166.5 -5.67 336.6 16.92 471.15 98.76 c 132.32 91.77 207.2 312.85 187.25 473.08 L 2533 1383.26 l -897.67 436 c -29.45 -10.29 -732.21 217 -736.5 186.09 c 70.09 -58.43 107.08 -164.48 88.89 -260.07 c -12.84 -67.63 -49.21 -126.07 -85.24 -180.83 s -73.58 -109.28 -90.61 -173.24 S 802.81 1250.46 850.77 1202 Z" stroke-linecap="round"/>
</g>
		<g transform="matrix(1 0 0 1 386.1469 185.0772)" id="Capa_1" clip-path="url(#CLIPPATH_14)">
<clipPath id="CLIPPATH_14">
	<rect transform="matrix(1 0 0 1 0.3032 -0.0272)" id="SVGID-29" x="-843.95" y="-770.185" rx="0" ry="0" width="1687.9" height="1540.37"/>
</clipPath>
<path style="stroke: rgb(248,183,124); stroke-width: 1.75; stroke-dasharray: none; stroke-linecap: butt; stroke-dashoffset: 0; stroke-linejoin: miter; stroke-miterlimit: 10; is-custom-font: none; font-file-url: none; fill: none; fill-rule: nonzero; opacity: 0.17;" transform=" translate(-1692.7368, -1240.8022)" d="M 899.73 1217.57 c 48.19 -48.53 123.27 -51.9 191 -56.59 s 145.37 -20.51 178.63 -79.74 c 36.34 -64.59 1.65 -141.11 -3.73 -213.33 c -7.3 -97.13 43.12 -193.3 118.46 -260.79 A 399.93 399.93 0 0 1 1440.36 565 c 104.88 -64.9 231.15 -85 352.52 -89.53 c 161.83 -6.31 326.93 14.55 457.24 92.5 C 2378 656.67 2448.23 877.31 2429 1032.2 l 103.52 365 l -871.9 434.61 c -31.91 -11.15 -713.88 205.33 -718.53 171.86 c 67.59 -57.63 103.42 -161.32 86.08 -254.85 c -12.23 -66.19 -47.11 -123.47 -81.58 -177.14 s -70.3 -107.08 -86.23 -169.55 S 852.72 1264.91 899.73 1217.57 Z" stroke-linecap="round"/>
</g>
		<g transform="matrix(1 0 0 1 410.4737 202.5975)" id="Capa_1" clip-path="url(#CLIPPATH_15)">
<clipPath id="CLIPPATH_15">
	<rect transform="matrix(1 0 0 1 0.3263 -0.0126)" id="SVGID-32" x="-819.17" y="-751.75" rx="0" ry="0" width="1638.34" height="1503.5"/>
</clipPath>
<path style="stroke: rgb(248,183,124); stroke-width: 1.8; stroke-dasharray: none; stroke-linecap: butt; stroke-dashoffset: 0; stroke-linejoin: miter; stroke-miterlimit: 10; is-custom-font: none; font-file-url: none; fill: none; fill-rule: nonzero; opacity: 0.17;" transform=" translate(-1717.0637, -1258.3226)" d="M 948.69 1233.11 c 47 -47.12 119.87 -50.64 185.7 -55.42 s 141.25 -20.25 173.82 -77.64 c 35.59 -62.58 2.62 -136.68 -2.06 -206.62 c -6.37 -94.08 43 -187.22 116.39 -252.71 a 392.16 392.16 0 0 1 54.79 -40.92 c 102.06 -63.1 224.73 -83 342.58 -88 c 157.15 -6.93 317.25 12.19 443.34 86.25 c 123.5 85.66 189 305.87 170.4 455.42 L 2532 1411.05 l -846.14 433.24 c -34.36 -12 -695.55 193.68 -700.56 157.63 c 65.1 -56.83 99.75 -158.15 83.27 -249.63 c -11.62 -64.74 -45 -120.85 -77.91 -173.45 S 923.6 1474 908.76 1413 S 902.63 1279.33 948.69 1233.11 Z" stroke-linecap="round"/>
</g>
		<g transform="matrix(1 0 0 1 434.8132 220.1295)" id="Capa_1" clip-path="url(#CLIPPATH_16)">
<clipPath id="CLIPPATH_16">
	<rect transform="matrix(1 0 0 1 0.3268 0.0005)" id="SVGID-33" x="-794.4" y="-733.385" rx="0" ry="0" width="1588.8" height="1466.77"/>
</clipPath>
<path style="stroke: rgb(248,183,124); stroke-width: 1.84; stroke-dasharray: none; stroke-linecap: butt; stroke-dashoffset: 0; stroke-linejoin: miter; stroke-miterlimit: 10; is-custom-font: none; font-file-url: none; fill: none; fill-rule: nonzero; opacity: 0.17;" transform=" translate(-1741.4032, -1275.8545)" d="M 997.67 1248.62 c 45.73 -45.71 116.45 -49.4 180.39 -54.24 s 137.13 -20 169 -75.54 c 34.85 -60.59 3.59 -132.26 -0.39 -199.93 c -5.44 -91 42.87 -181.12 114.33 -244.62 a 384.43 384.43 0 0 1 53.31 -39.71 c 99.23 -61.29 218.32 -81 332.64 -86.48 c 152.47 -7.56 307.57 9.83 429.44 80 c 119.09 82.6 179.91 302.39 162 446.59 l 93.1 350.21 l -820.38 431.87 c -36.81 -12.85 -677.22 182 -682.57 143.4 c 62.59 -56 96.07 -155 80.45 -244.4 c -11 -63.3 -42.91 -118.26 -74.24 -169.76 S 971 1483.34 957.22 1423.87 S 952.55 1293.72 997.67 1248.62 Z" stroke-linecap="round"/>
</g>
		<g transform="matrix(1 0 0 1 459.1961 237.649)" id="Capa_1" clip-path="url(#CLIPPATH_17)">
<clipPath id="CLIPPATH_17">
	<rect transform="matrix(1 0 0 1 0.289 0.026)" id="SVGID-36" x="-769.635" y="-715.1" rx="0" ry="0" width="1539.27" height="1430.2"/>
</clipPath>
<path style="stroke: rgb(248,183,124); stroke-width: 1.88; stroke-dasharray: none; stroke-linecap: butt; stroke-dashoffset: 0; stroke-linejoin: miter; stroke-miterlimit: 10; is-custom-font: none; font-file-url: none; fill: none; fill-rule: nonzero; opacity: 0.17;" transform=" translate(-1765.786, -1293.374)" d="M 1046.65 1264.1 c 44.5 -44.3 113 -48.16 175.08 -53.07 s 133 -19.73 164.2 -73.44 c 34.1 -58.59 4.55 -127.83 1.27 -193.23 c -4.5 -88 42.75 -175 112.28 -236.53 a 378.59 378.59 0 0 1 51.82 -38.51 c 96.41 -59.48 211.91 -79 322.7 -85 c 147.79 -8.18 297.91 7.47 415.54 73.76 c 114.68 79.54 170.82 298.89 153.53 437.76 L 2531 1438.71 l -794.62 430.51 c -39.27 -13.72 -658.89 170.37 -664.6 129.17 c 60.1 -55.23 92.4 -151.83 77.64 -239.19 c -10.4 -61.84 -40.81 -115.64 -70.58 -166.06 s -60.47 -100.47 -73.1 -158.44 S 1002.48 1308.08 1046.65 1264.1 Z" stroke-linecap="round"/>
</g>
		<g transform="matrix(1 0 0 1 483.515 255.2008)" id="Capa_1" clip-path="url(#CLIPPATH_18)">
<clipPath id="CLIPPATH_18">
	<rect transform="matrix(1 0 0 1 0.3101 0.0142)" id="SVGID-38" x="-744.885" y="-696.91" rx="0" ry="0" width="1489.77" height="1393.82"/>
</clipPath>
<path style="stroke: rgb(248,183,124); stroke-width: 1.93; stroke-dasharray: none; stroke-linecap: butt; stroke-dashoffset: 0; stroke-linejoin: miter; stroke-miterlimit: 10; is-custom-font: none; font-file-url: none; fill: none; fill-rule: nonzero; opacity: 0.17;" transform=" translate(-1790.1049, -1310.9258)" d="M 1095.65 1279.54 c 43.27 -42.9 109.63 -46.91 169.78 -51.9 s 128.88 -19.47 159.38 -71.34 c 33.35 -56.58 5.51 -123.41 2.93 -186.53 c -3.57 -84.88 42.63 -168.95 110.22 -228.44 A 370 370 0 0 1 1588.3 704 c 93.59 -57.67 205.5 -77.07 312.76 -83.42 c 143.12 -8.81 288.24 5.11 401.65 67.5 C 2413 764.6 2464.43 983.52 2447.8 1117.05 l 82.68 335.44 l -768.85 429.14 c -41.72 -14.57 -640.57 158.71 -646.64 114.93 c 57.61 -54.43 88.74 -148.66 74.84 -234 c -9.8 -60.4 -38.71 -113 -66.91 -162.38 s -57.21 -98.26 -68.73 -154.73 S 1052.43 1322.39 1095.65 1279.54 Z" stroke-linecap="round"/>
</g>
		<g transform="matrix(1 0 0 1 507.8486 272.775)" id="Capa_1" clip-path="url(#CLIPPATH_19)">
<clipPath id="CLIPPATH_19">
	<rect transform="matrix(1 0 0 1 0.3213 -0.02)" id="SVGID-40" x="-720.15" y="-678.83" rx="0" ry="0" width="1440.3" height="1357.66"/>
</clipPath>
<path style="stroke: rgb(248,183,124); stroke-width: 1.97; stroke-dasharray: none; stroke-linecap: butt; stroke-dashoffset: 0; stroke-linejoin: miter; stroke-miterlimit: 10; is-custom-font: none; font-file-url: none; fill: none; fill-rule: nonzero; opacity: 0.17;" transform=" translate(-1814.4387, -1328.5)" d="M 1144.67 1294.93 c 42 -41.49 106.21 -45.66 164.46 -50.72 S 1433.89 1225 1463.7 1175 c 32.6 -54.59 6.48 -119 4.59 -179.83 c -2.63 -81.82 42.51 -162.86 108.16 -220.36 a 364.83 364.83 0 0 1 48.87 -36.08 c 90.77 -55.86 199.09 -75.09 302.82 -81.9 c 138.44 -9.42 278.56 2.76 387.75 61.27 c 105.86 73.42 152.62 291.91 136.66 420.1 l 77.46 328 L 1786.92 1894 c -44.18 -15.43 -622.23 147 -628.66 100.7 c 55.11 -53.63 85.07 -145.49 72 -228.74 c -9.19 -59 -36.62 -110.42 -63.24 -158.68 s -53.93 -96.07 -64.36 -151 S 1102.39 1336.67 1144.67 1294.93 Z" stroke-linecap="round"/>
</g>
		<g transform="matrix(1 0 0 1 532.2002 290.3055)" id="Capa_1" clip-path="url(#CLIPPATH_20)">
<clipPath id="CLIPPATH_20">
	<rect transform="matrix(1 0 0 1 0.3047 -0.0106)" id="SVGID-42" x="-695.425" y="-660.87" rx="0" ry="0" width="1390.85" height="1321.74"/>
</clipPath>
<path style="stroke: rgb(248,183,124); stroke-width: 2.01; stroke-dasharray: none; stroke-linecap: butt; stroke-dashoffset: 0; stroke-linejoin: miter; stroke-miterlimit: 10; is-custom-font: none; font-file-url: none; fill: none; fill-rule: nonzero; opacity: 0.17;" transform=" translate(-1838.7903, -1346.0306)" d="M 1193.7 1310.26 c 40.8 -40.08 102.79 -44.41 159.15 -49.54 s 120.64 -19 149.76 -67.15 c 31.86 -52.59 7.44 -114.56 6.26 -173.13 c -1.69 -78.76 42.38 -156.77 106.1 -212.28 a 357 357 0 0 1 47.39 -34.86 c 87.93 -54.06 192.67 -73.11 292.87 -80.38 c 133.77 -10 268.89 0.4 373.86 55 c 101.44 70.36 143.51 288.43 128.22 411.26 l 72.25 320.68 L 1812.24 1906.3 c -46.64 -16.29 -603.9 135.39 -610.69 86.46 c 52.62 -52.83 81.4 -142.32 69.22 -223.51 c -8.58 -57.51 -34.52 -107.82 -59.58 -155 s -50.65 -93.87 -60 -147.34 S 1152.36 1350.88 1193.7 1310.26 Z" stroke-linecap="round"/>
</g>
		<g transform="matrix(1 0 0 1 556.5302 307.8337)" id="Capa_1" clip-path="url(#CLIPPATH_21)">
<clipPath id="CLIPPATH_21">
	<rect transform="matrix(1 0 0 1 0.3049 0.0063)" id="SVGID-44" x="-670.725" y="-643.055" rx="0" ry="0" width="1341.45" height="1286.11"/>
</clipPath>
<path style="stroke: rgb(248,183,124); stroke-width: 2.06; stroke-dasharray: none; stroke-linecap: butt; stroke-dashoffset: 0; stroke-linejoin: miter; stroke-miterlimit: 10; is-custom-font: none; font-file-url: none; fill: none; fill-rule: nonzero; opacity: 0.17;" transform=" translate(-1863.1201, -1363.5587)" d="M 1242.75 1325.53 c 39.56 -38.68 99.38 -43.17 153.84 -48.37 s 116.52 -18.7 144.94 -65.05 c 31.12 -50.58 8.41 -110.13 7.93 -166.43 c -0.76 -75.69 42.26 -150.68 104 -204.19 a 351.05 351.05 0 0 1 45.91 -33.65 c 85.11 -52.26 186.26 -71.13 282.93 -78.85 c 129.1 -10.68 259.22 -2 360 48.77 c 97 67.31 134.42 284.94 119.79 402.44 l 67 313.28 l -691.56 425.06 c -49.09 -17.14 -585.57 123.73 -592.72 72.23 c 50.13 -52 77.74 -139.16 66.41 -218.29 c -8 -56.06 -32.41 -105.21 -55.91 -151.3 s -47.38 -91.67 -55.6 -143.64 S 1202.35 1365 1242.75 1325.53 Z" stroke-linecap="round"/>
</g>
		<g transform="matrix(1 0 0 1 580.9394 325.3293)" id="Capa_1" clip-path="url(#CLIPPATH_22)">
<clipPath id="CLIPPATH_22">
	<rect transform="matrix(1 0 0 1 0.2307 0.0506)" id="SVGID-46" x="-646.04" y="-625.405" rx="0" ry="0" width="1292.08" height="1250.81"/>
</clipPath>
<path style="stroke: rgb(248,183,124); stroke-width: 2.1; stroke-dasharray: none; stroke-linecap: butt; stroke-dashoffset: 0; stroke-linejoin: miter; stroke-miterlimit: 10; is-custom-font: none; font-file-url: none; fill: none; fill-rule: nonzero; opacity: 0.17;" transform=" translate(-1887.5293, -1381.0544)" d="M 1291.82 1340.73 c 38.33 -37.28 96 -41.93 148.54 -47.2 s 112.38 -18.44 140.12 -63 c 30.37 -48.58 9.38 -105.71 9.59 -159.73 c 0.18 -72.64 42.14 -144.6 102 -196.1 a 342.57 342.57 0 0 1 44.43 -32.44 c 82.29 -50.45 179.84 -69.16 273 -77.33 c 124.42 -11.3 249.54 -4.32 346.06 42.53 c 92.62 64.24 125.32 281.44 111.35 393.6 l 61.83 305.9 l -665.8 423.7 c -51.54 -18 -567.24 112.07 -574.74 58 c 47.63 -51.23 74.06 -136 63.59 -213.08 c -7.36 -54.61 -30.31 -102.59 -52.24 -147.6 s -44.1 -89.47 -51.22 -139.93 S 1252.37 1379.1 1291.82 1340.73 Z" stroke-linecap="round"/>
</g>
		<g transform="matrix(1 0 0 1 605.2437 342.9797)" id="Capa_1" clip-path="url(#CLIPPATH_23)">
<clipPath id="CLIPPATH_23">
	<rect transform="matrix(1 0 0 1 0.2614 -0.0547)" id="SVGID-48" x="-621.375" y="-607.95" rx="0" ry="0" width="1242.75" height="1215.9"/>
</clipPath>
<path style="stroke: rgb(248,183,124); stroke-width: 2.14; stroke-dasharray: none; stroke-linecap: butt; stroke-dashoffset: 0; stroke-linejoin: miter; stroke-miterlimit: 10; is-custom-font: none; font-file-url: none; fill: none; fill-rule: nonzero; opacity: 0.17;" transform=" translate(-1911.8336, -1398.7047)" d="M 1340.92 1355.83 c 37.09 -35.87 92.55 -40.68 143.22 -46 s 108.27 -18.19 135.31 -60.86 c 29.63 -46.58 10.34 -101.27 11.26 -153 c 1.11 -69.57 42 -138.52 99.93 -188 a 336.54 336.54 0 0 1 42.95 -31.23 c 79.46 -48.65 173.43 -67.17 263 -75.8 c 119.75 -11.92 239.88 -6.68 332.17 36.28 c 88.21 61.19 116.22 278 102.92 384.78 l 56.61 298.52 l -640 422.32 c -54 -18.85 -548.91 100.42 -556.77 43.77 c 45.13 -50.43 70.4 -132.83 60.79 -207.85 c -6.76 -53.16 -28.22 -100 -48.57 -143.92 s -40.84 -87.26 -46.86 -136.23 S 1302.41 1393.08 1340.92 1355.83 Z" stroke-linecap="round"/>
</g>
		<g transform="matrix(1 0 0 1 629.5933 360.483)" id="Capa_1" clip-path="url(#CLIPPATH_24)">
<clipPath id="CLIPPATH_24">
	<rect transform="matrix(1 0 0 1 0.2466 -0.023)" id="SVGID-50" x="-596.74" y="-590.725" rx="0" ry="0" width="1193.48" height="1181.45"/>
</clipPath>
<path style="stroke: rgb(248,183,124); stroke-width: 2.18; stroke-dasharray: none; stroke-linecap: butt; stroke-dashoffset: 0; stroke-linejoin: miter; stroke-miterlimit: 10; is-custom-font: none; font-file-url: none; fill: none; fill-rule: nonzero; opacity: 0.17;" transform=" translate(-1936.1834, -1416.208)" d="M 1390 1370.83 c 35.85 -34.48 89.14 -39.43 137.91 -44.86 s 104.15 -17.91 130.5 -58.75 c 28.88 -44.58 11.31 -96.85 12.92 -146.32 c 2.05 -66.51 41.9 -132.42 97.87 -179.94 a 330.77 330.77 0 0 1 41.48 -30 c 76.63 -46.84 167 -65.19 253.1 -74.27 c 115.07 -12.55 230.2 -9 318.26 30 c 83.81 58.12 107.13 274.47 94.49 375.94 l 51.4 291.14 l -614.27 421 c -56.44 -19.72 -530.58 88.76 -538.79 29.54 c 42.63 -49.64 66.72 -129.67 58 -202.63 c -6.14 -51.72 -26.11 -97.38 -44.9 -140.23 s -37.56 -85.06 -42.48 -132.52 S 1352.47 1407 1390 1370.83 Z" stroke-linecap="round"/>
</g>
		<g transform="matrix(1 0 0 1 653.9712 378.0149)" id="Capa_1" clip-path="url(#CLIPPATH_25)">
<clipPath id="CLIPPATH_25">
	<rect transform="matrix(1 0 0 1 0.2089 -0.0099)" id="SVGID-52" x="-572.14" y="-573.78" rx="0" ry="0" width="1144.28" height="1147.56"/>
</clipPath>
<path style="stroke: rgb(248,183,124); stroke-width: 2.23; stroke-dasharray: none; stroke-linecap: butt; stroke-dashoffset: 0; stroke-linejoin: miter; stroke-miterlimit: 10; is-custom-font: none; font-file-url: none; fill: none; fill-rule: nonzero; opacity: 0.17;" transform=" translate(-1960.5611, -1433.7399)" d="M 1439.19 1385.69 c 34.62 -33.07 85.73 -38.18 132.61 -43.68 s 100 -17.66 125.68 -56.66 c 28.14 -42.58 12.27 -92.42 14.59 -139.62 c 3 -63.45 41.77 -126.34 95.81 -171.84 a 324.28 324.28 0 0 1 40 -28.81 c 73.81 -45 160.6 -63.21 243.16 -72.74 c 110.39 -13.18 220.52 -11.41 304.37 23.78 c 79.39 55.07 98 271 86.05 367.11 L 2527.65 1547 l -588.51 419.6 c -58.9 -20.57 -512.25 77.11 -520.83 15.31 c 40.14 -48.84 63.06 -126.51 55.17 -197.41 c -5.54 -50.27 -24 -94.77 -41.23 -136.53 s -34.29 -82.86 -38.11 -128.83 S 1402.57 1420.69 1439.19 1385.69 Z" stroke-linecap="round"/>
</g>
		<g transform="matrix(1 0 0 1 678.3305 395.5417)" id="Capa_1" clip-path="url(#CLIPPATH_26)">
<clipPath id="CLIPPATH_26">
	<rect transform="matrix(1 0 0 1 0.1696 -0.0017)" id="SVGID-54" x="-547.57" y="-557.125" rx="0" ry="0" width="1095.14" height="1114.25"/>
</clipPath>
<path style="stroke: rgb(248,183,124); stroke-width: 2.27; stroke-dasharray: none; stroke-linecap: butt; stroke-dashoffset: 0; stroke-linejoin: miter; stroke-miterlimit: 10; is-custom-font: none; font-file-url: none; fill: none; fill-rule: nonzero; opacity: 0.17;" transform=" translate(-1984.9204, -1451.2667)" d="M 1488.38 1400.34 c 33.38 -31.68 82.32 -36.94 127.3 -42.51 s 95.9 -17.4 120.87 -54.56 c 27.39 -40.58 13.24 -88 16.25 -132.92 c 3.91 -60.39 41.66 -120.25 93.75 -163.76 A 319.45 319.45 0 0 1 1885.07 979 c 71 -43.22 154.21 -61.07 233.22 -71.22 C 2224 894.19 2329.14 894 2408.76 925.31 c 75 52 88.93 267.49 77.62 358.29 l 41 276.37 L 1964.62 1978.2 c -61.36 -21.43 -493.93 65.45 -502.86 1.07 c 37.65 -48 59.39 -123.33 52.36 -192.18 c -4.93 -48.82 -21.92 -92.16 -37.57 -132.85 s -31 -80.65 -33.73 -125.12 S 1452.7 1434.21 1488.38 1400.34 Z" stroke-linecap="round"/>
</g>
		<g transform="matrix(1 0 0 1 702.6383 413.0899)" id="Capa_1" clip-path="url(#CLIPPATH_27)">
<clipPath id="CLIPPATH_27">
	<rect transform="matrix(1 0 0 1 0.1968 -0.0049)" id="SVGID-56" x="-523.045" y="-540.94" rx="0" ry="0" width="1046.09" height="1081.88"/>
</clipPath>
<path style="stroke: rgb(248,183,124); stroke-width: 2.31; stroke-dasharray: none; stroke-linecap: butt; stroke-dashoffset: 0; stroke-linejoin: miter; stroke-miterlimit: 10; is-custom-font: none; font-file-url: none; fill: none; fill-rule: nonzero; opacity: 0.17;" transform=" translate(-2009.2282, -1468.8149)" d="M 1537.62 1414.81 c 32.13 -30.27 78.9 -35.69 122 -41.33 s 91.77 -17.14 116.06 -52.46 c 26.65 -38.58 14.21 -83.57 17.91 -126.22 c 4.86 -57.32 41.54 -114.16 91.7 -155.67 a 312.65 312.65 0 0 1 37 -26.38 c 68.16 -41.42 147.8 -59.09 223.28 -69.7 c 101.07 -14.21 201.18 -16.12 276.57 11.29 c 70.57 48.95 79.83 264 69.19 349.45 l 35.76 269 l -537 416.87 c -63.81 -22.29 -475.59 53.79 -484.88 -13.16 c 35.15 -47.23 55.72 -120.17 49.55 -187 c -4.32 -47.38 -19.82 -89.56 -33.91 -129.16 s -27.73 -78.46 -29.35 -121.42 S 1502.87 1447.56 1537.62 1414.81 Z" stroke-linecap="round"/>
</g>
		<g transform="matrix(1 0 0 1 727.0074 430.6282)" id="Capa_1" clip-path="url(#CLIPPATH_28)">
<clipPath id="CLIPPATH_28">
	<rect transform="matrix(1 0 0 1 0.1526 -0.0032)" id="SVGID-58" x="-498.57" y="-525.29" rx="0" ry="0" width="997.14" height="1050.58"/>
</clipPath>
<path style="stroke: rgb(248,183,124); stroke-width: 2.36; stroke-dasharray: none; stroke-linecap: butt; stroke-dashoffset: 0; stroke-linejoin: miter; stroke-miterlimit: 10; is-custom-font: none; font-file-url: none; fill: none; fill-rule: nonzero; opacity: 0.17;" transform=" translate(-2033.5974, -1486.3532)" d="M 1586.91 1429 c 30.88 -28.88 75.48 -34.44 116.67 -40.16 s 87.65 -16.88 111.25 -50.36 c 25.89 -36.58 15.16 -79.14 19.57 -119.52 c 5.79 -54.26 41.42 -108.07 89.63 -147.59 a 310.42 310.42 0 0 1 35.57 -25.17 c 65.33 -39.61 141.39 -57.11 213.33 -68.17 c 96.41 -14.82 191.51 -18.47 262.68 5.05 c 66.16 45.89 70.73 260.51 60.75 340.62 l 30.55 261.6 L 2015.7 2000.81 c -66.27 -23.15 -457.27 42.13 -466.91 -27.39 c 32.66 -46.44 52 -117 46.74 -181.74 c -3.72 -45.93 -17.72 -87 -30.23 -125.47 s -24.47 -76.26 -25 -117.71 S 1553.09 1460.62 1586.91 1429 Z" stroke-linecap="round"/>
</g>
		<g transform="matrix(1 0 0 1 751.3679 448.1326)" id="Capa_1" clip-path="url(#CLIPPATH_29)">
<clipPath id="CLIPPATH_29">
	<rect transform="matrix(1 0 0 1 0.1172 0.3825)" id="SVGID-60" x="-474.155" y="-511.96" rx="0" ry="0" width="948.31" height="1023.92"/>
</clipPath>
<path style="stroke: rgb(248,183,124); stroke-width: 2.4; stroke-dasharray: none; stroke-linecap: butt; stroke-dashoffset: 0; stroke-linejoin: miter; stroke-miterlimit: 10; is-custom-font: none; font-file-url: none; fill: none; fill-rule: nonzero; opacity: 0.17;" transform=" translate(-2057.9578, -1503.8575)" d="M 1636.26 1441.52 c 29.64 -27.48 72.07 -33.19 111.36 -39 s 83.53 -16.62 106.43 -48.27 c 25.15 -34.57 16.13 -74.71 21.24 -112.82 c 6.73 -51.19 41.3 -102 87.58 -139.5 a 303.87 303.87 0 0 1 34.08 -24 c 62.51 -37.81 135 -55.13 203.4 -66.64 c 91.72 -15.45 181.83 -20.84 248.78 -1.21 c 61.74 42.83 61.63 257 52.32 331.8 l 25.33 254.21 L 2041.33 2010.3 c -68.72 -24 -438.93 30.47 -448.93 -41.62 c 30.15 -45.64 48.38 -113.84 43.93 -176.52 c -3.11 -44.48 -15.62 -84.34 -26.57 -121.77 s -21.19 -74.06 -20.6 -114 S 1603.38 1472 1636.26 1441.52 Z" stroke-linecap="round"/>
</g>
		<g transform="matrix(1 0 0 1 775.73 465.7117)" id="Capa_1" clip-path="url(#CLIPPATH_30)">
<clipPath id="CLIPPATH_30">
	<rect transform="matrix(1 0 0 1 -0.01 0.3633)" id="SVGID-62" x="-450.83" y="-501.36" rx="0" ry="0" width="901.66" height="1002.72"/>
</clipPath>
<path style="stroke: rgb(248,183,124); stroke-width: 2.44; stroke-dasharray: none; stroke-linecap: butt; stroke-dashoffset: 0; stroke-linejoin: miter; stroke-miterlimit: 10; is-custom-font: none; font-file-url: none; fill: none; fill-rule: nonzero; opacity: 0.17;" transform=" translate(-2082.32, -1521.4367)" d="M 1686.59 1451.38 c 28.39 -26.1 68.66 -32 106.05 -37.82 s 79.41 -16.36 101.62 -46.17 c 24.41 -32.56 17.1 -70.28 22.91 -106.11 c 7.66 -48.13 41.17 -95.9 85.52 -131.42 a 299.74 299.74 0 0 1 32.6 -22.74 c 59.68 -36 128.57 -53.14 193.45 -65.11 c 87.06 -16.07 172.17 -23.2 234.88 -7.46 c 57.34 39.77 52.53 253.53 43.89 323 l 20.13 246.83 L 2068 2017.13 c -71.18 -24.86 -420.6 18.81 -431 -55.86 c 27.66 -44.84 44.72 -110.68 41.12 -171.29 c -2.5 -43 -13.52 -81.74 -22.9 -118.09 S 1637.29 1600 1639 1561.58 S 1654.64 1480.73 1686.59 1451.38 Z" stroke-linecap="round"/>
</g>
		<g transform="matrix(1 0 0 1 800.08 483.2486)" id="Capa_1" clip-path="url(#CLIPPATH_31)">
<clipPath id="CLIPPATH_31">
	<rect transform="matrix(1 0 0 1 -0.035 0.3964)" id="SVGID-63" x="-429.025" y="-491" rx="0" ry="0" width="858.05" height="982"/>
</clipPath>
<path style="stroke: rgb(248,183,124); stroke-width: 2.48; stroke-dasharray: none; stroke-linecap: butt; stroke-dashoffset: 0; stroke-linejoin: miter; stroke-miterlimit: 10; is-custom-font: none; font-file-url: none; fill: none; fill-rule: nonzero; opacity: 0.17;" transform=" translate(-2106.67, -1538.9736)" d="M 1738.55 1461.47 c 27.15 -24.7 65.25 -30.7 100.75 -36.64 s 75.27 -16.1 96.8 -44.07 c 23.67 -30.57 18.07 -65.86 24.57 -99.41 c 8.6 -45.08 41 -89.81 83.46 -123.33 a 296.06 296.06 0 0 1 31.13 -21.53 c 56.86 -34.19 122.16 -51.17 183.51 -63.59 c 82.38 -16.7 162.49 -25.56 221 -13.7 c 52.93 36.71 43.44 250 35.46 314.13 l 14.91 239.45 L 2096.2 2024.19 c -73.64 -25.71 -402.28 7.16 -413 -70.09 c 25.17 -44 41 -107.51 38.31 -166.07 c -1.89 -41.59 -11.42 -79.12 -19.23 -114.39 S 1687.64 1604 1690.43 1567 S 1707.54 1489.7 1738.55 1461.47 Z" stroke-linecap="round"/>
</g>
		<g transform="matrix(1 0 0 1 824.42 500.7666)" id="Capa_1" clip-path="url(#CLIPPATH_32)">
<clipPath id="CLIPPATH_32">
	<rect transform="matrix(1 0 0 1 -0.04 0.4483)" id="SVGID-66" x="-407.22" y="-480.96" rx="0" ry="0" width="814.44" height="961.92"/>
</clipPath>
<path style="stroke: rgb(248,183,124); stroke-width: 2.53; stroke-dasharray: none; stroke-linecap: butt; stroke-dashoffset: 0; stroke-linejoin: miter; stroke-miterlimit: 10; is-custom-font: none; font-file-url: none; fill: none; fill-rule: nonzero; opacity: 0.17;" transform=" translate(-2131.01, -1556.4917)" d="M 1790.52 1471.88 c 25.89 -23.31 61.83 -29.46 95.43 -35.46 s 71.16 -15.85 92 -42 c 22.92 -28.58 19 -61.44 26.24 -92.72 c 9.53 -42 40.93 -83.72 81.4 -115.25 a 294.74 294.74 0 0 1 29.65 -20.31 c 54 -32.39 115.75 -49.19 173.56 -62.07 c 77.72 -17.31 152.83 -27.91 207.09 -19.94 c 48.52 33.65 34.34 246.55 27 305.3 l 9.7 232.06 l -408.16 410.06 c -76.08 -26.58 -384 -4.51 -395 -84.33 c 22.67 -43.23 37.38 -104.35 35.5 -160.85 c -1.28 -40.14 -9.32 -76.51 -15.56 -110.7 s -11.37 -67.45 -7.48 -102.9 S 1760.43 1499 1790.52 1471.88 Z" stroke-linecap="round"/>
</g>
		<g transform="matrix(1 0 0 1 848.7951 518.3436)" id="Capa_1" clip-path="url(#CLIPPATH_33)">
<clipPath id="CLIPPATH_33">
	<rect transform="matrix(1 0 0 1 -0.1101 0.4315)" id="SVGID-68" x="-388.015" y="-471.33" rx="0" ry="0" width="776.03" height="942.66"/>
</clipPath>
<path style="stroke: rgb(248,183,124); stroke-width: 2.57; stroke-dasharray: none; stroke-linecap: butt; stroke-dashoffset: 0; stroke-linejoin: miter; stroke-miterlimit: 10; is-custom-font: none; font-file-url: none; fill: none; fill-rule: nonzero; opacity: 0.17;" transform=" translate(-2155.3851, -1574.0685)" d="M 1839.85 1482.7 c 24.64 -21.92 58.42 -28.21 90.13 -34.29 s 67 -15.58 87.18 -39.87 c 22.17 -26.57 20 -57 27.9 -86 c 10.47 -39 40.8 -77.64 79.34 -107.16 a 295.35 295.35 0 0 1 28.18 -19.11 c 51.2 -30.58 109.33 -47.2 163.61 -60.54 c 73 -17.94 143.16 -30.27 193.19 -26.19 c 44.11 30.59 25.24 243.06 18.59 296.47 l 4.49 224.68 l -382.4 408.69 c -78.54 -27.43 -365.62 -16.16 -377 -98.56 c 20.18 -42.43 33.72 -101.18 32.69 -155.62 c -0.67 -38.7 -7.22 -73.91 -11.89 -107 s -8.09 -65.24 -3.1 -99.2 S 1810.69 1508.66 1839.85 1482.7 Z" stroke-linecap="round"/>
</g>
		<g transform="matrix(1 0 0 1 873.1208 535.8841)" id="Capa_1" clip-path="url(#CLIPPATH_34)">
<clipPath id="CLIPPATH_34">
	<rect transform="matrix(1 0 0 1 -0.0758 0.466)" id="SVGID-70" x="-370.165" y="-462.275" rx="0" ry="0" width="740.33" height="924.55"/>
</clipPath>
<path style="stroke: rgb(248,183,124); stroke-width: 2.61; stroke-dasharray: none; stroke-linecap: butt; stroke-dashoffset: 0; stroke-linejoin: miter; stroke-miterlimit: 10; is-custom-font: none; font-file-url: none; fill: none; fill-rule: nonzero; opacity: 0.17;" transform=" translate(-2179.7108, -1591.609)" d="M 1887.89 1494.09 c 23.38 -20.54 55 -27 84.81 -33.12 s 62.91 -15.32 82.37 -37.77 c 21.42 -24.57 20.95 -52.58 29.56 -79.31 c 11.4 -35.89 40.69 -71.55 77.29 -99.08 a 295.52 295.52 0 0 1 26.69 -17.88 c 48.38 -28.78 102.93 -45.23 153.68 -59 c 68.37 -18.57 133.48 -32.63 179.29 -32.44 c 39.7 27.53 16.14 239.57 10.16 287.64 L 2531 1640.4 l -356.64 407.33 c -81 -28.29 -347.28 -27.81 -359.07 -112.79 c 17.68 -41.63 30 -98 29.88 -150.4 c -0.07 -37.25 -5.12 -71.3 -8.23 -103.32 s -4.81 -63 1.27 -95.5 S 1859.65 1518.91 1887.89 1494.09 Z" stroke-linecap="round"/>
</g>
</g>
</g>
</svg>